<svg width="432" height="379" viewBox="0 0 432 379" fill="none" xmlns="http://www.w3.org/2000/svg">
<g filter="url(#filter0_d_103_4331)">
<rect x="16" y="16" width="400" height="347" rx="10" fill="white" shape-rendering="crispEdges"/>
<path d="M48.7102 41.4901V38.9545H60.6562V41.4901H56.2031V53.5H53.1634V41.4901H48.7102ZM62.5668 53.5V42.5909H65.5923V53.5H62.5668ZM64.0866 41.1847C63.6368 41.1847 63.2509 41.0355 62.929 40.7372C62.6117 40.4342 62.4531 40.072 62.4531 39.6506C62.4531 39.2339 62.6117 38.8764 62.929 38.5781C63.2509 38.2751 63.6368 38.1236 64.0866 38.1236C64.5365 38.1236 64.92 38.2751 65.2372 38.5781C65.5592 38.8764 65.7202 39.2339 65.7202 39.6506C65.7202 40.072 65.5592 40.4342 65.2372 40.7372C64.92 41.0355 64.5365 41.1847 64.0866 41.1847ZM73.8185 42.5909V44.8636H67.2489V42.5909H73.8185ZM68.7404 39.9773H71.766V50.1477C71.766 50.4271 71.8086 50.6449 71.8938 50.8011C71.979 50.9527 72.0974 51.0592 72.2489 51.1207C72.4052 51.1823 72.5851 51.2131 72.7887 51.2131C72.9308 51.2131 73.0728 51.2012 73.2148 51.1776C73.3569 51.1491 73.4658 51.1278 73.5415 51.1136L74.0174 53.3651C73.8659 53.4124 73.6528 53.4669 73.3782 53.5284C73.1036 53.5947 72.7698 53.6349 72.3768 53.6491C71.6476 53.6776 71.0084 53.5805 70.4592 53.358C69.9147 53.1354 69.4909 52.7898 69.1879 52.321C68.8848 51.8523 68.7357 51.2604 68.7404 50.5455V39.9773ZM79.0494 38.9545V53.5H76.0238V38.9545H79.0494ZM86.4446 53.7131C85.3224 53.7131 84.3565 53.4858 83.5469 53.0312C82.742 52.572 82.1217 51.9233 81.6861 51.0852C81.2505 50.2424 81.0327 49.2457 81.0327 48.0952C81.0327 46.973 81.2505 45.9882 81.6861 45.1406C82.1217 44.2931 82.7348 43.6326 83.5256 43.1591C84.321 42.6856 85.2538 42.4489 86.3239 42.4489C87.0436 42.4489 87.7135 42.5649 88.3338 42.7969C88.9588 43.0241 89.5033 43.3674 89.9673 43.8267C90.4361 44.286 90.8007 44.8636 91.0611 45.5597C91.3215 46.2509 91.4517 47.0606 91.4517 47.9886V48.8196H82.2401V46.9446H88.6037C88.6037 46.509 88.509 46.1231 88.3196 45.7869C88.1302 45.4508 87.8674 45.188 87.5312 44.9986C87.1998 44.8045 86.8139 44.7074 86.3736 44.7074C85.9143 44.7074 85.5071 44.8139 85.152 45.027C84.8016 45.2353 84.527 45.517 84.3281 45.8722C84.1293 46.2225 84.0275 46.6132 84.0227 47.044V48.8267C84.0227 49.3665 84.1222 49.8329 84.321 50.2259C84.5246 50.6188 84.8111 50.9219 85.1804 51.1349C85.5497 51.348 85.9877 51.4545 86.4943 51.4545C86.8305 51.4545 87.1383 51.4072 87.4176 51.3125C87.697 51.2178 87.9361 51.0758 88.1349 50.8864C88.3338 50.697 88.4853 50.465 88.5895 50.1903L91.3878 50.375C91.2457 51.0473 90.9545 51.6345 90.5142 52.1364C90.0786 52.6335 89.5152 53.0218 88.8239 53.3011C88.1373 53.5758 87.3442 53.7131 86.4446 53.7131Z" fill="#343A40"/>
<g filter="url(#filter1_d_103_4331)">
<rect x="268" y="29" width="116" height="34" rx="10" fill="white" shape-rendering="crispEdges"/>
<path d="M289.452 51.1392C288.998 51.1326 288.551 51.0497 288.11 50.8906C287.672 50.7315 287.275 50.4664 286.917 50.0952C286.559 49.724 286.272 49.2251 286.056 48.5987C285.844 47.9723 285.738 47.1901 285.738 46.2521C285.738 45.3639 285.826 44.575 286.002 43.8857C286.181 43.1963 286.438 42.6146 286.772 42.1406C287.107 41.6634 287.511 41.3004 287.985 41.0518C288.459 40.8033 288.991 40.679 289.581 40.679C290.188 40.679 290.726 40.7983 291.197 41.0369C291.668 41.2756 292.049 41.6054 292.341 42.0263C292.636 42.4472 292.823 42.9261 292.902 43.4631H291.386C291.283 43.0388 291.079 42.6925 290.775 42.424C290.47 42.1555 290.072 42.0213 289.581 42.0213C288.836 42.0213 288.254 42.3461 287.836 42.9957C287.422 43.6454 287.213 44.5485 287.21 45.7053H287.284C287.46 45.4169 287.676 45.1716 287.931 44.9695C288.189 44.764 288.478 44.6065 288.796 44.4972C289.117 44.3845 289.455 44.3281 289.81 44.3281C290.4 44.3281 290.934 44.4723 291.411 44.7607C291.891 45.0457 292.274 45.4401 292.559 45.9439C292.844 46.4477 292.987 47.0244 292.987 47.674C292.987 48.3236 292.839 48.9119 292.544 49.4389C292.253 49.9659 291.842 50.3835 291.311 50.6918C290.781 50.9967 290.161 51.1458 289.452 51.1392ZM289.447 49.8466C289.838 49.8466 290.188 49.7505 290.496 49.5582C290.804 49.366 291.048 49.1075 291.227 48.7827C291.406 48.4579 291.495 48.0949 291.495 47.6939C291.495 47.3028 291.408 46.9465 291.232 46.625C291.06 46.3035 290.821 46.0483 290.516 45.8594C290.214 45.6705 289.87 45.576 289.482 45.576C289.187 45.576 288.913 45.6323 288.662 45.745C288.413 45.8577 288.194 46.0135 288.005 46.2124C287.816 46.4112 287.667 46.6399 287.558 46.8984C287.452 47.1536 287.399 47.4238 287.399 47.7088C287.399 48.09 287.487 48.4429 287.662 48.7678C287.841 49.0926 288.085 49.3544 288.393 49.5533C288.705 49.7488 289.056 49.8466 289.447 49.8466ZM298.523 51V43.3636H299.95V44.6065H300.044C300.203 44.1856 300.463 43.8575 300.825 43.6222C301.186 43.3835 301.618 43.2642 302.122 43.2642C302.633 43.2642 303.06 43.3835 303.405 43.6222C303.753 43.8608 304.01 44.1889 304.175 44.6065H304.255C304.437 44.1989 304.727 43.8741 305.125 43.6321C305.523 43.3868 305.997 43.2642 306.547 43.2642C307.24 43.2642 307.805 43.4813 308.242 43.9155C308.683 44.3497 308.903 45.0043 308.903 45.8793V51H307.417V46.0185C307.417 45.5014 307.276 45.1269 306.994 44.8949C306.713 44.6629 306.376 44.5469 305.985 44.5469C305.501 44.5469 305.125 44.696 304.857 44.9943C304.588 45.2893 304.454 45.6688 304.454 46.1328V51H302.972V45.924C302.972 45.5097 302.843 45.1766 302.585 44.9247C302.326 44.6728 301.99 44.5469 301.575 44.5469C301.294 44.5469 301.033 44.6214 300.795 44.7706C300.559 44.9164 300.369 45.1203 300.223 45.3821C300.08 45.6439 300.009 45.9472 300.009 46.2919V51H298.523ZM314.112 51.1541C313.396 51.1541 312.772 50.9901 312.238 50.6619C311.704 50.3338 311.29 49.8748 310.995 49.2848C310.7 48.6948 310.553 48.0054 310.553 47.2166C310.553 46.4245 310.7 45.7318 310.995 45.1385C311.29 44.5452 311.704 44.0845 312.238 43.7564C312.772 43.4283 313.396 43.2642 314.112 43.2642C314.828 43.2642 315.453 43.4283 315.987 43.7564C316.52 44.0845 316.935 44.5452 317.23 45.1385C317.525 45.7318 317.672 46.4245 317.672 47.2166C317.672 48.0054 317.525 48.6948 317.23 49.2848C316.935 49.8748 316.52 50.3338 315.987 50.6619C315.453 50.9901 314.828 51.1541 314.112 51.1541ZM314.117 49.9062C314.581 49.9062 314.966 49.7836 315.271 49.5384C315.576 49.2931 315.801 48.9666 315.947 48.5589C316.096 48.1513 316.171 47.7022 316.171 47.2116C316.171 46.7244 316.096 46.277 315.947 45.8693C315.801 45.4583 315.576 45.1286 315.271 44.88C314.966 44.6314 314.581 44.5071 314.117 44.5071C313.65 44.5071 313.262 44.6314 312.954 44.88C312.649 45.1286 312.422 45.4583 312.273 45.8693C312.127 46.277 312.054 46.7244 312.054 47.2116C312.054 47.7022 312.127 48.1513 312.273 48.5589C312.422 48.9666 312.649 49.2931 312.954 49.5384C313.262 49.7836 313.65 49.9062 314.117 49.9062ZM320.818 46.4659V51H319.331V43.3636H320.758V44.6065H320.853C321.028 44.2022 321.303 43.8774 321.678 43.6321C322.056 43.3868 322.531 43.2642 323.105 43.2642C323.625 43.2642 324.081 43.3736 324.472 43.5923C324.863 43.8078 325.166 44.1293 325.382 44.5568C325.597 44.9844 325.705 45.513 325.705 46.1428V51H324.218V46.3217C324.218 45.7682 324.074 45.3357 323.786 45.0241C323.498 44.7093 323.101 44.5518 322.598 44.5518C322.253 44.5518 321.946 44.6264 321.678 44.7756C321.413 44.9247 321.202 45.1435 321.047 45.4318C320.894 45.7169 320.818 46.0616 320.818 46.4659ZM331.263 43.3636V44.5568H327.092V43.3636H331.263ZM328.211 41.5341H329.697V48.7578C329.697 49.0462 329.74 49.2633 329.826 49.4091C329.913 49.5516 330.024 49.6494 330.159 49.7024C330.299 49.7521 330.449 49.777 330.612 49.777C330.731 49.777 330.836 49.7687 330.925 49.7521C331.015 49.7356 331.084 49.7223 331.134 49.7124L331.402 50.9403C331.316 50.9735 331.194 51.0066 331.034 51.0398C330.875 51.0762 330.676 51.0961 330.438 51.0994C330.047 51.1061 329.682 51.0365 329.344 50.8906C329.006 50.7448 328.733 50.5194 328.524 50.2145C328.315 49.9096 328.211 49.5268 328.211 49.0661V41.5341ZM334.558 46.4659V51H333.072V40.8182H334.538V44.6065H334.633C334.812 44.1955 335.085 43.8691 335.453 43.6271C335.821 43.3852 336.301 43.2642 336.895 43.2642C337.418 43.2642 337.876 43.3719 338.267 43.5874C338.661 43.8028 338.966 44.1243 339.182 44.5518C339.4 44.9761 339.51 45.5064 339.51 46.1428V51H338.023V46.3217C338.023 45.7616 337.879 45.3274 337.591 45.0192C337.302 44.7076 336.901 44.5518 336.388 44.5518C336.036 44.5518 335.721 44.6264 335.443 44.7756C335.168 44.9247 334.951 45.1435 334.792 45.4318C334.636 45.7169 334.558 46.0616 334.558 46.4659ZM347.216 45.228L345.868 45.4666C345.812 45.2943 345.723 45.1302 345.6 44.9744C345.481 44.8187 345.318 44.6911 345.113 44.5916C344.907 44.4922 344.65 44.4425 344.342 44.4425C343.921 44.4425 343.57 44.5369 343.288 44.7259C343.006 44.9115 342.866 45.1518 342.866 45.4467C342.866 45.7019 342.96 45.9074 343.149 46.0632C343.338 46.219 343.643 46.3466 344.064 46.446L345.277 46.7244C345.979 46.8868 346.503 47.1371 346.848 47.4751C347.193 47.8132 347.365 48.2524 347.365 48.7926C347.365 49.25 347.232 49.6577 346.967 50.0156C346.705 50.3703 346.339 50.6487 345.868 50.8509C345.401 51.053 344.859 51.1541 344.243 51.1541C343.388 51.1541 342.69 50.9718 342.15 50.6072C341.609 50.2393 341.278 49.7173 341.155 49.0412L342.592 48.8224C342.682 49.197 342.866 49.4804 343.144 49.6726C343.422 49.8615 343.785 49.956 344.233 49.956C344.72 49.956 345.109 49.8549 345.401 49.6527C345.693 49.4472 345.839 49.197 345.839 48.902C345.839 48.6634 345.749 48.4628 345.57 48.3004C345.394 48.138 345.124 48.0154 344.76 47.9325L343.467 47.6491C342.755 47.4867 342.228 47.2282 341.886 46.8736C341.548 46.5189 341.379 46.0698 341.379 45.5263C341.379 45.0755 341.505 44.6811 341.757 44.343C342.009 44.005 342.357 43.7415 342.801 43.5526C343.245 43.3603 343.754 43.2642 344.327 43.2642C345.153 43.2642 345.802 43.4432 346.276 43.8011C346.75 44.1558 347.063 44.6314 347.216 45.228Z" fill="#343A40"/>
<g clip-path="url(#clip0_103_4331)">
<path d="M356.667 43.6666L360 47L363.333 43.6666H356.667Z" fill="#343A40"/>
</g>
</g>
<g clip-path="url(#clip1_103_4331)">
<path d="M207.653 298.683C223.133 299.861 238.686 297.749 253.291 292.486C267.896 287.223 281.221 278.929 292.391 268.148C303.561 257.367 312.323 244.344 318.1 229.935C323.877 215.526 326.538 200.057 325.91 184.546L298.432 185.659C298.904 197.293 296.908 208.894 292.575 219.701C288.242 230.508 281.671 240.275 273.293 248.361C264.916 256.447 254.922 262.668 243.968 266.615C233.014 270.562 221.349 272.146 209.74 271.262L207.653 298.683Z" fill="#FFA5DA"/>
<path d="M326 189C326 159.826 314.411 131.847 293.782 111.218C273.153 90.5893 245.174 79 216 79C186.826 79 158.847 90.5892 138.218 111.218C117.589 131.847 106 159.826 106 189H133.5C133.5 167.12 142.192 146.135 157.664 130.664C173.135 115.192 194.12 106.5 216 106.5C237.88 106.5 258.865 115.192 274.336 130.664C289.808 146.135 298.5 167.12 298.5 189H326Z" fill="#9787FF"/>
<path d="M116.553 236.014C124.91 253.691 137.828 268.821 153.976 279.846C170.125 290.871 188.92 297.393 208.427 298.739L210.32 271.304C195.69 270.295 181.593 265.404 169.482 257.135C157.371 248.866 147.682 237.518 141.415 224.26L116.553 236.014Z" fill="#0096FF"/>
<path d="M106 189C106 205.314 109.629 221.424 116.623 236.162L141.467 224.372C136.222 213.318 133.5 201.235 133.5 189H106Z" fill="#FDB600"/>
<path d="M162.365 184.709V182.173H174.311V184.709H169.857V196.719H166.818V184.709H162.365ZM179.568 196.932C178.465 196.932 177.511 196.697 176.706 196.229C175.906 195.755 175.288 195.097 174.852 194.254C174.416 193.407 174.199 192.424 174.199 191.307C174.199 190.18 174.416 189.195 174.852 188.352C175.288 187.505 175.906 186.847 176.706 186.378C177.511 185.904 178.465 185.668 179.568 185.668C180.671 185.668 181.623 185.904 182.423 186.378C183.228 186.847 183.848 187.505 184.284 188.352C184.72 189.195 184.937 190.18 184.937 191.307C184.937 192.424 184.72 193.407 184.284 194.254C183.848 195.097 183.228 195.755 182.423 196.229C181.623 196.697 180.671 196.932 179.568 196.932ZM179.582 194.588C180.084 194.588 180.503 194.446 180.839 194.162C181.175 193.873 181.429 193.48 181.599 192.983C181.774 192.486 181.862 191.92 181.862 191.286C181.862 190.651 181.774 190.085 181.599 189.588C181.429 189.091 181.175 188.698 180.839 188.409C180.503 188.12 180.084 187.976 179.582 187.976C179.076 187.976 178.649 188.12 178.304 188.409C177.963 188.698 177.705 189.091 177.53 189.588C177.359 190.085 177.274 190.651 177.274 191.286C177.274 191.92 177.359 192.486 177.53 192.983C177.705 193.48 177.963 193.873 178.304 194.162C178.649 194.446 179.076 194.588 179.582 194.588ZM192.707 185.81V188.082H186.138V185.81H192.707ZM187.629 183.196H190.655V193.366C190.655 193.646 190.697 193.864 190.782 194.02C190.868 194.171 190.986 194.278 191.138 194.339C191.294 194.401 191.474 194.432 191.677 194.432C191.819 194.432 191.961 194.42 192.104 194.396C192.246 194.368 192.354 194.347 192.43 194.332L192.906 196.584C192.755 196.631 192.541 196.686 192.267 196.747C191.992 196.813 191.658 196.854 191.265 196.868C190.536 196.896 189.897 196.799 189.348 196.577C188.803 196.354 188.38 196.009 188.077 195.54C187.773 195.071 187.624 194.479 187.629 193.764V183.196ZM197.789 196.925C197.093 196.925 196.473 196.804 195.928 196.562C195.384 196.316 194.953 195.954 194.635 195.476C194.323 194.993 194.167 194.392 194.167 193.672C194.167 193.066 194.278 192.557 194.501 192.145C194.723 191.733 195.026 191.402 195.41 191.151C195.793 190.9 196.229 190.71 196.716 190.582C197.209 190.455 197.725 190.365 198.265 190.312C198.899 190.246 199.411 190.185 199.799 190.128C200.187 190.066 200.469 189.976 200.644 189.858C200.819 189.74 200.907 189.564 200.907 189.332V189.29C200.907 188.84 200.765 188.492 200.481 188.246C200.201 188 199.804 187.876 199.287 187.876C198.743 187.876 198.31 187.997 197.988 188.239C197.666 188.475 197.453 188.774 197.349 189.134L194.55 188.906C194.692 188.243 194.972 187.67 195.388 187.188C195.805 186.7 196.342 186.326 197.001 186.065C197.663 185.8 198.43 185.668 199.302 185.668C199.908 185.668 200.488 185.739 201.042 185.881C201.6 186.023 202.095 186.243 202.526 186.541C202.962 186.839 203.305 187.223 203.556 187.692C203.807 188.156 203.932 188.712 203.932 189.361V196.719H201.063V195.206H200.978C200.803 195.547 200.568 195.848 200.275 196.108C199.981 196.364 199.628 196.565 199.216 196.712C198.805 196.854 198.329 196.925 197.789 196.925ZM198.655 194.837C199.1 194.837 199.493 194.749 199.834 194.574C200.175 194.394 200.443 194.152 200.637 193.849C200.831 193.546 200.928 193.203 200.928 192.82V191.662C200.833 191.723 200.703 191.78 200.537 191.832C200.376 191.88 200.194 191.925 199.991 191.967C199.787 192.005 199.583 192.041 199.38 192.074C199.176 192.102 198.992 192.128 198.826 192.152C198.471 192.204 198.161 192.287 197.895 192.401C197.63 192.514 197.424 192.668 197.278 192.862C197.131 193.052 197.057 193.288 197.057 193.572C197.057 193.984 197.206 194.299 197.505 194.517C197.808 194.73 198.191 194.837 198.655 194.837ZM209.305 182.173V196.719H206.28V182.173H209.305ZM219.042 182.173L222.558 193.224H222.693L226.216 182.173H229.625L224.611 196.719H220.648L215.626 182.173H219.042ZM233.219 196.925C232.523 196.925 231.902 196.804 231.358 196.562C230.813 196.316 230.382 195.954 230.065 195.476C229.753 194.993 229.596 194.392 229.596 193.672C229.596 193.066 229.708 192.557 229.93 192.145C230.153 191.733 230.456 191.402 230.839 191.151C231.223 190.9 231.658 190.71 232.146 190.582C232.639 190.455 233.155 190.365 233.694 190.312C234.329 190.246 234.84 190.185 235.229 190.128C235.617 190.066 235.898 189.976 236.074 189.858C236.249 189.74 236.336 189.564 236.336 189.332V189.29C236.336 188.84 236.194 188.492 235.91 188.246C235.631 188 235.233 187.876 234.717 187.876C234.173 187.876 233.739 187.997 233.417 188.239C233.095 188.475 232.882 188.774 232.778 189.134L229.98 188.906C230.122 188.243 230.401 187.67 230.818 187.188C231.235 186.7 231.772 186.326 232.43 186.065C233.093 185.8 233.86 185.668 234.731 185.668C235.337 185.668 235.917 185.739 236.471 185.881C237.03 186.023 237.525 186.243 237.956 186.541C238.391 186.839 238.735 187.223 238.986 187.692C239.237 188.156 239.362 188.712 239.362 189.361V196.719H236.493V195.206H236.407C236.232 195.547 235.998 195.848 235.704 196.108C235.411 196.364 235.058 196.565 234.646 196.712C234.234 196.854 233.758 196.925 233.219 196.925ZM234.085 194.837C234.53 194.837 234.923 194.749 235.264 194.574C235.605 194.394 235.872 194.152 236.067 193.849C236.261 193.546 236.358 193.203 236.358 192.82V191.662C236.263 191.723 236.133 191.78 235.967 191.832C235.806 191.88 235.624 191.925 235.42 191.967C235.217 192.005 235.013 192.041 234.809 192.074C234.606 192.102 234.421 192.128 234.256 192.152C233.9 192.204 233.59 192.287 233.325 192.401C233.06 192.514 232.854 192.668 232.707 192.862C232.56 193.052 232.487 193.288 232.487 193.572C232.487 193.984 232.636 194.299 232.934 194.517C233.238 194.73 233.621 194.837 234.085 194.837ZM244.735 182.173V196.719H241.709V182.173H244.735ZM254.154 192.074V185.81H257.18V196.719H254.275V194.737H254.161C253.915 195.376 253.506 195.89 252.933 196.278C252.365 196.667 251.671 196.861 250.852 196.861C250.123 196.861 249.481 196.695 248.927 196.364C248.373 196.032 247.94 195.561 247.627 194.95C247.32 194.339 247.163 193.608 247.159 192.756V185.81H250.184V192.216C250.189 192.86 250.362 193.369 250.703 193.743C251.044 194.117 251.5 194.304 252.073 194.304C252.438 194.304 252.779 194.221 253.096 194.055C253.413 193.885 253.669 193.634 253.863 193.303C254.062 192.971 254.159 192.562 254.154 192.074ZM264.572 196.932C263.449 196.932 262.483 196.705 261.674 196.25C260.869 195.791 260.249 195.142 259.813 194.304C259.377 193.461 259.16 192.464 259.16 191.314C259.16 190.192 259.377 189.207 259.813 188.359C260.249 187.512 260.862 186.851 261.653 186.378C262.448 185.904 263.381 185.668 264.451 185.668C265.171 185.668 265.84 185.784 266.461 186.016C267.086 186.243 267.63 186.586 268.094 187.045C268.563 187.505 268.928 188.082 269.188 188.778C269.448 189.47 269.579 190.279 269.579 191.207V192.038H260.367V190.163H266.731C266.731 189.728 266.636 189.342 266.447 189.006C266.257 188.67 265.994 188.407 265.658 188.217C265.327 188.023 264.941 187.926 264.501 187.926C264.041 187.926 263.634 188.033 263.279 188.246C262.929 188.454 262.654 188.736 262.455 189.091C262.256 189.441 262.154 189.832 262.15 190.263V192.045C262.15 192.585 262.249 193.052 262.448 193.445C262.652 193.838 262.938 194.141 263.307 194.354C263.677 194.567 264.115 194.673 264.621 194.673C264.957 194.673 265.265 194.626 265.545 194.531C265.824 194.437 266.063 194.295 266.262 194.105C266.461 193.916 266.612 193.684 266.716 193.409L269.515 193.594C269.373 194.266 269.081 194.853 268.641 195.355C268.206 195.852 267.642 196.241 266.951 196.52C266.264 196.795 265.471 196.932 264.572 196.932Z" fill="#343A40"/>
</g>
<path d="M63.759 324.935C62.6905 329.221 58.3495 331.829 54.0633 330.761C49.779 329.692 47.1708 325.351 48.2395 321.066C49.3075 316.779 53.6483 314.171 57.9333 315.239C62.2193 316.308 64.8273 320.649 63.7588 324.935H63.759Z" fill="#9787FF"/>
<path d="M68.7155 326.5V319.227H71.4428C72.0015 319.227 72.4703 319.331 72.8491 319.54C73.2302 319.748 73.5178 320.035 73.712 320.399C73.9085 320.761 74.0067 321.173 74.0067 321.635C74.0067 322.101 73.9085 322.516 73.712 322.878C73.5155 323.24 73.2255 323.525 72.8419 323.734C72.4584 323.94 71.9861 324.043 71.425 324.043H69.6175V322.96H71.2475C71.5742 322.96 71.8417 322.903 72.05 322.789C72.2584 322.675 72.4123 322.519 72.5117 322.32C72.6135 322.121 72.6644 321.893 72.6644 321.635C72.6644 321.377 72.6135 321.15 72.5117 320.953C72.4123 320.757 72.2572 320.604 72.0465 320.495C71.8382 320.384 71.5695 320.328 71.2404 320.328H70.033V326.5H68.7155ZM75.0943 326.5V321.045H76.3407V321.955H76.3975C76.497 321.64 76.6674 321.397 76.9089 321.227C77.1527 321.054 77.4309 320.967 77.7434 320.967C77.8144 320.967 77.8937 320.971 77.9813 320.978C78.0713 320.983 78.1459 320.991 78.2051 321.003V322.185C78.1506 322.166 78.0642 322.15 77.9458 322.136C77.8298 322.119 77.7174 322.111 77.6085 322.111C77.3741 322.111 77.1634 322.162 76.9764 322.263C76.7917 322.363 76.6461 322.501 76.5396 322.679C76.433 322.857 76.3798 323.061 76.3798 323.293V326.5H75.0943ZM81.2138 326.607C80.6811 326.607 80.2194 326.489 79.8288 326.255C79.4382 326.021 79.1352 325.693 78.9197 325.271C78.7067 324.85 78.6001 324.357 78.6001 323.794C78.6001 323.231 78.7067 322.737 78.9197 322.313C79.1352 321.889 79.4382 321.56 79.8288 321.326C80.2194 321.092 80.6811 320.974 81.2138 320.974C81.7464 320.974 82.2081 321.092 82.5987 321.326C82.9893 321.56 83.2912 321.889 83.5042 322.313C83.7197 322.737 83.8274 323.231 83.8274 323.794C83.8274 324.357 83.7197 324.85 83.5042 325.271C83.2912 325.693 82.9893 326.021 82.5987 326.255C82.2081 326.489 81.7464 326.607 81.2138 326.607ZM81.2209 325.577C81.5097 325.577 81.7512 325.497 81.9453 325.339C82.1394 325.178 82.2838 324.962 82.3785 324.692C82.4756 324.423 82.5241 324.122 82.5241 323.79C82.5241 323.457 82.4756 323.155 82.3785 322.885C82.2838 322.613 82.1394 322.396 81.9453 322.235C81.7512 322.074 81.5097 321.994 81.2209 321.994C80.9249 321.994 80.6787 322.074 80.4822 322.235C80.2881 322.396 80.1425 322.613 80.0454 322.885C79.9507 323.155 79.9034 323.457 79.9034 323.79C79.9034 324.122 79.9507 324.423 80.0454 324.692C80.1425 324.962 80.2881 325.178 80.4822 325.339C80.6787 325.497 80.9249 325.577 81.2209 325.577ZM86.9426 326.596C86.5141 326.596 86.1306 326.486 85.7921 326.266C85.4535 326.045 85.186 325.726 84.9895 325.307C84.793 324.888 84.6948 324.379 84.6948 323.78C84.6948 323.174 84.7942 322.662 84.9931 322.246C85.1943 321.827 85.4654 321.511 85.8063 321.298C86.1472 321.082 86.5271 320.974 86.9462 320.974C87.2658 320.974 87.5286 321.029 87.7345 321.138C87.9405 321.244 88.1038 321.373 88.2246 321.525C88.3453 321.674 88.4388 321.815 88.5051 321.947H88.5584V319.227H89.8475V326.5H88.5832V325.641H88.5051C88.4388 325.773 88.343 325.914 88.2175 326.063C88.092 326.21 87.9263 326.335 87.7203 326.44C87.5144 326.544 87.2551 326.596 86.9426 326.596ZM87.3013 325.541C87.5735 325.541 87.8056 325.468 87.9973 325.321C88.1891 325.172 88.3347 324.965 88.4341 324.7C88.5335 324.434 88.5832 324.125 88.5832 323.773C88.5832 323.42 88.5335 323.113 88.4341 322.853C88.337 322.593 88.1926 322.39 88.0009 322.246C87.8115 322.101 87.5783 322.029 87.3013 322.029C87.0148 322.029 86.7757 322.104 86.584 322.253C86.3922 322.402 86.2478 322.608 86.1507 322.871C86.0537 323.134 86.0051 323.434 86.0051 323.773C86.0051 324.114 86.0537 324.418 86.1507 324.685C86.2502 324.951 86.3957 325.16 86.5875 325.314C86.7816 325.465 87.0196 325.541 87.3013 325.541ZM94.6939 324.206V321.045H95.9794V326.5H94.7329V325.531H94.6761C94.553 325.836 94.3506 326.086 94.0689 326.28C93.7895 326.474 93.4451 326.571 93.0355 326.571C92.678 326.571 92.362 326.492 92.0873 326.333C91.8151 326.172 91.602 325.939 91.4481 325.634C91.2942 325.326 91.2173 324.954 91.2173 324.518V321.045H92.5028V324.32C92.5028 324.665 92.5975 324.94 92.7869 325.143C92.9763 325.347 93.2249 325.449 93.5326 325.449C93.722 325.449 93.9055 325.403 94.0831 325.31C94.2606 325.218 94.4062 325.081 94.5199 324.898C94.6359 324.714 94.6939 324.483 94.6939 324.206ZM99.6806 326.607C99.136 326.607 98.6685 326.487 98.2779 326.248C97.8896 326.009 97.5901 325.679 97.3794 325.257C97.1711 324.833 97.0669 324.346 97.0669 323.794C97.0669 323.24 97.1734 322.751 97.3865 322.327C97.5996 321.901 97.9002 321.57 98.2885 321.333C98.6791 321.094 99.1408 320.974 99.6734 320.974C100.116 320.974 100.508 321.056 100.849 321.219C101.192 321.38 101.466 321.609 101.669 321.905C101.873 322.198 101.989 322.542 102.017 322.935H100.789C100.739 322.672 100.62 322.453 100.433 322.278C100.249 322.1 100.001 322.011 99.6912 322.011C99.4284 322.011 99.1976 322.082 98.9987 322.224C98.7999 322.364 98.6448 322.565 98.5335 322.828C98.4246 323.091 98.3702 323.406 98.3702 323.773C98.3702 324.144 98.4246 324.464 98.5335 324.732C98.6424 324.997 98.7951 325.201 98.9916 325.346C99.1905 325.488 99.4237 325.559 99.6912 325.559C99.8806 325.559 100.05 325.523 100.199 325.452C100.351 325.379 100.477 325.274 100.579 325.136C100.681 324.999 100.751 324.832 100.789 324.636H102.017C101.986 325.022 101.873 325.364 101.676 325.662C101.48 325.958 101.212 326.19 100.874 326.358C100.535 326.524 100.137 326.607 99.6806 326.607ZM105.796 321.045V322.04H102.661V321.045H105.796ZM103.435 319.739H104.721V324.859C104.721 325.032 104.747 325.165 104.799 325.257C104.853 325.347 104.924 325.409 105.012 325.442C105.099 325.475 105.196 325.491 105.303 325.491C105.383 325.491 105.457 325.486 105.523 325.474C105.592 325.462 105.644 325.451 105.679 325.442L105.896 326.447C105.827 326.47 105.729 326.496 105.601 326.525C105.476 326.553 105.322 326.57 105.14 326.575C104.818 326.584 104.528 326.536 104.27 326.429C104.011 326.32 103.807 326.152 103.655 325.925C103.506 325.697 103.433 325.413 103.435 325.072V319.739ZM112.296 319.227V326.5H110.978V320.509H110.936L109.235 321.596V320.388L111.042 319.227H112.296Z" fill="#5F666C"/>
<path d="M153.76 324.935C152.691 329.221 148.35 331.829 144.064 330.761C139.78 329.692 137.171 325.351 138.24 321.066C139.308 316.779 143.649 314.171 147.934 315.239C152.22 316.308 154.828 320.649 153.759 324.935H153.76Z" fill="#FFA5DA"/>
<path d="M158.716 326.5V319.227H161.443C162.002 319.227 162.471 319.331 162.85 319.54C163.231 319.748 163.518 320.035 163.713 320.399C163.909 320.761 164.007 321.173 164.007 321.635C164.007 322.101 163.909 322.516 163.713 322.878C163.516 323.24 163.226 323.525 162.843 323.734C162.459 323.94 161.987 324.043 161.426 324.043H159.618V322.96H161.248C161.575 322.96 161.842 322.903 162.051 322.789C162.259 322.675 162.413 322.519 162.512 322.32C162.614 322.121 162.665 321.893 162.665 321.635C162.665 321.377 162.614 321.15 162.512 320.953C162.413 320.757 162.258 320.604 162.047 320.495C161.839 320.384 161.57 320.328 161.241 320.328H160.034V326.5H158.716ZM165.095 326.5V321.045H166.341V321.955H166.398C166.498 321.64 166.668 321.397 166.909 321.227C167.153 321.054 167.432 320.967 167.744 320.967C167.815 320.967 167.894 320.971 167.982 320.978C168.072 320.983 168.146 320.991 168.206 321.003V322.185C168.151 322.166 168.065 322.15 167.946 322.136C167.83 322.119 167.718 322.111 167.609 322.111C167.375 322.111 167.164 322.162 166.977 322.263C166.792 322.363 166.647 322.501 166.54 322.679C166.434 322.857 166.38 323.061 166.38 323.293V326.5H165.095ZM171.214 326.607C170.682 326.607 170.22 326.489 169.829 326.255C169.439 326.021 169.136 325.693 168.92 325.271C168.707 324.85 168.601 324.357 168.601 323.794C168.601 323.231 168.707 322.737 168.92 322.313C169.136 321.889 169.439 321.56 169.829 321.326C170.22 321.092 170.682 320.974 171.214 320.974C171.747 320.974 172.209 321.092 172.599 321.326C172.99 321.56 173.292 321.889 173.505 322.313C173.72 322.737 173.828 323.231 173.828 323.794C173.828 324.357 173.72 324.85 173.505 325.271C173.292 325.693 172.99 326.021 172.599 326.255C172.209 326.489 171.747 326.607 171.214 326.607ZM171.221 325.577C171.51 325.577 171.752 325.497 171.946 325.339C172.14 325.178 172.284 324.962 172.379 324.692C172.476 324.423 172.525 324.122 172.525 323.79C172.525 323.457 172.476 323.155 172.379 322.885C172.284 322.613 172.14 322.396 171.946 322.235C171.752 322.074 171.51 321.994 171.221 321.994C170.926 321.994 170.679 322.074 170.483 322.235C170.289 322.396 170.143 322.613 170.046 322.885C169.951 323.155 169.904 323.457 169.904 323.79C169.904 324.122 169.951 324.423 170.046 324.692C170.143 324.962 170.289 325.178 170.483 325.339C170.679 325.497 170.926 325.577 171.221 325.577ZM176.943 326.596C176.515 326.596 176.131 326.486 175.793 326.266C175.454 326.045 175.187 325.726 174.99 325.307C174.794 324.888 174.695 324.379 174.695 323.78C174.695 323.174 174.795 322.662 174.994 322.246C175.195 321.827 175.466 321.511 175.807 321.298C176.148 321.082 176.528 320.974 176.947 320.974C177.266 320.974 177.529 321.029 177.735 321.138C177.941 321.244 178.104 321.373 178.225 321.525C178.346 321.674 178.439 321.815 178.506 321.947H178.559V319.227H179.848V326.5H178.584V325.641H178.506C178.439 325.773 178.344 325.914 178.218 326.063C178.093 326.21 177.927 326.335 177.721 326.44C177.515 326.544 177.256 326.596 176.943 326.596ZM177.302 325.541C177.574 325.541 177.806 325.468 177.998 325.321C178.19 325.172 178.335 324.965 178.435 324.7C178.534 324.434 178.584 324.125 178.584 323.773C178.584 323.42 178.534 323.113 178.435 322.853C178.338 322.593 178.193 322.39 178.001 322.246C177.812 322.101 177.579 322.029 177.302 322.029C177.015 322.029 176.776 322.104 176.585 322.253C176.393 322.402 176.248 322.608 176.151 322.871C176.054 323.134 176.006 323.434 176.006 323.773C176.006 324.114 176.054 324.418 176.151 324.685C176.251 324.951 176.396 325.16 176.588 325.314C176.782 325.465 177.02 325.541 177.302 325.541ZM184.694 324.206V321.045H185.98V326.5H184.734V325.531H184.677C184.554 325.836 184.351 326.086 184.069 326.28C183.79 326.474 183.446 326.571 183.036 326.571C182.679 326.571 182.363 326.492 182.088 326.333C181.816 326.172 181.603 325.939 181.449 325.634C181.295 325.326 181.218 324.954 181.218 324.518V321.045H182.503V324.32C182.503 324.665 182.598 324.94 182.788 325.143C182.977 325.347 183.225 325.449 183.533 325.449C183.723 325.449 183.906 325.403 184.084 325.31C184.261 325.218 184.407 325.081 184.52 324.898C184.636 324.714 184.694 324.483 184.694 324.206ZM189.681 326.607C189.137 326.607 188.669 326.487 188.278 326.248C187.89 326.009 187.591 325.679 187.38 325.257C187.172 324.833 187.068 324.346 187.068 323.794C187.068 323.24 187.174 322.751 187.387 322.327C187.6 321.901 187.901 321.57 188.289 321.333C188.68 321.094 189.141 320.974 189.674 320.974C190.117 320.974 190.509 321.056 190.849 321.219C191.193 321.38 191.466 321.609 191.67 321.905C191.873 322.198 191.989 322.542 192.018 322.935H190.789C190.739 322.672 190.621 322.453 190.434 322.278C190.249 322.1 190.002 322.011 189.692 322.011C189.429 322.011 189.198 322.082 188.999 322.224C188.8 322.364 188.645 322.565 188.534 322.828C188.425 323.091 188.371 323.406 188.371 323.773C188.371 324.144 188.425 324.464 188.534 324.732C188.643 324.997 188.796 325.201 188.992 325.346C189.191 325.488 189.424 325.559 189.692 325.559C189.881 325.559 190.05 325.523 190.2 325.452C190.351 325.379 190.478 325.274 190.58 325.136C190.681 324.999 190.751 324.832 190.789 324.636H192.018C191.987 325.022 191.873 325.364 191.677 325.662C191.48 325.958 191.213 326.19 190.874 326.358C190.536 326.524 190.138 326.607 189.681 326.607ZM195.797 321.045V322.04H192.661V321.045H195.797ZM193.436 319.739H194.721V324.859C194.721 325.032 194.747 325.165 194.799 325.257C194.854 325.347 194.925 325.409 195.012 325.442C195.1 325.475 195.197 325.491 195.303 325.491C195.384 325.491 195.457 325.486 195.524 325.474C195.592 325.462 195.644 325.451 195.68 325.442L195.897 326.447C195.828 326.47 195.73 326.496 195.602 326.525C195.476 326.553 195.322 326.57 195.14 326.575C194.818 326.584 194.528 326.536 194.27 326.429C194.012 326.32 193.807 326.152 193.656 325.925C193.507 325.697 193.433 325.413 193.436 325.072V319.739ZM196.858 326.5V325.548L199.383 323.073C199.624 322.829 199.826 322.613 199.987 322.423C200.148 322.234 200.268 322.05 200.349 321.873C200.429 321.695 200.47 321.506 200.47 321.305C200.47 321.075 200.417 320.879 200.313 320.715C200.209 320.549 200.066 320.422 199.884 320.332C199.701 320.242 199.494 320.197 199.262 320.197C199.023 320.197 198.813 320.246 198.634 320.346C198.454 320.443 198.314 320.581 198.215 320.761C198.117 320.941 198.069 321.156 198.069 321.404H196.815C196.815 320.942 196.921 320.541 197.131 320.2C197.342 319.859 197.632 319.595 198.001 319.408C198.373 319.221 198.799 319.128 199.28 319.128C199.768 319.128 200.196 319.219 200.565 319.401C200.935 319.584 201.221 319.833 201.425 320.151C201.631 320.468 201.734 320.83 201.734 321.237C201.734 321.509 201.682 321.777 201.577 322.04C201.473 322.303 201.29 322.594 201.027 322.913C200.767 323.233 200.401 323.62 199.93 324.075L198.676 325.349V325.399H201.844V326.5H196.858Z" fill="#5F666C"/>
<path d="M242.76 324.935C241.692 329.221 237.351 331.829 233.064 330.761C228.78 329.692 226.172 325.351 227.241 321.066C228.309 316.779 232.649 314.171 236.934 315.239C241.22 316.308 243.828 320.649 242.76 324.935H242.76Z" fill="#0096FF"/>
<path d="M247.717 326.5V319.227H250.444C251.003 319.227 251.471 319.331 251.85 319.54C252.231 319.748 252.519 320.035 252.713 320.399C252.91 320.761 253.008 321.173 253.008 321.635C253.008 322.101 252.91 322.516 252.713 322.878C252.517 323.24 252.227 323.525 251.843 323.734C251.46 323.94 250.987 324.043 250.426 324.043H248.619V322.96H250.249C250.575 322.96 250.843 322.903 251.051 322.789C251.26 322.675 251.413 322.519 251.513 322.32C251.615 322.121 251.666 321.893 251.666 321.635C251.666 321.377 251.615 321.15 251.513 320.953C251.413 320.757 251.258 320.604 251.048 320.495C250.839 320.384 250.571 320.328 250.242 320.328H249.034V326.5H247.717ZM254.095 326.5V321.045H255.342V321.955H255.399C255.498 321.64 255.669 321.397 255.91 321.227C256.154 321.054 256.432 320.967 256.745 320.967C256.816 320.967 256.895 320.971 256.983 320.978C257.072 320.983 257.147 320.991 257.206 321.003V322.185C257.152 322.166 257.065 322.15 256.947 322.136C256.831 322.119 256.719 322.111 256.61 322.111C256.375 322.111 256.165 322.162 255.978 322.263C255.793 322.363 255.647 322.501 255.541 322.679C255.434 322.857 255.381 323.061 255.381 323.293V326.5H254.095ZM260.215 326.607C259.682 326.607 259.221 326.489 258.83 326.255C258.439 326.021 258.136 325.693 257.921 325.271C257.708 324.85 257.601 324.357 257.601 323.794C257.601 323.231 257.708 322.737 257.921 322.313C258.136 321.889 258.439 321.56 258.83 321.326C259.221 321.092 259.682 320.974 260.215 320.974C260.748 320.974 261.209 321.092 261.6 321.326C261.991 321.56 262.292 321.889 262.505 322.313C262.721 322.737 262.829 323.231 262.829 323.794C262.829 324.357 262.721 324.85 262.505 325.271C262.292 325.693 261.991 326.021 261.6 326.255C261.209 326.489 260.748 326.607 260.215 326.607ZM260.222 325.577C260.511 325.577 260.752 325.497 260.946 325.339C261.141 325.178 261.285 324.962 261.38 324.692C261.477 324.423 261.525 324.122 261.525 323.79C261.525 323.457 261.477 323.155 261.38 322.885C261.285 322.613 261.141 322.396 260.946 322.235C260.752 322.074 260.511 321.994 260.222 321.994C259.926 321.994 259.68 322.074 259.483 322.235C259.289 322.396 259.144 322.613 259.047 322.885C258.952 323.155 258.905 323.457 258.905 323.79C258.905 324.122 258.952 324.423 259.047 324.692C259.144 324.962 259.289 325.178 259.483 325.339C259.68 325.497 259.926 325.577 260.222 325.577ZM265.944 326.596C265.515 326.596 265.132 326.486 264.793 326.266C264.455 326.045 264.187 325.726 263.991 325.307C263.794 324.888 263.696 324.379 263.696 323.78C263.696 323.174 263.795 322.662 263.994 322.246C264.195 321.827 264.467 321.511 264.807 321.298C265.148 321.082 265.528 320.974 265.947 320.974C266.267 320.974 266.53 321.029 266.736 321.138C266.942 321.244 267.105 321.373 267.226 321.525C267.347 321.674 267.44 321.815 267.506 321.947H267.56V319.227H268.849V326.5H267.584V325.641H267.506C267.44 325.773 267.344 325.914 267.219 326.063C267.093 326.21 266.927 326.335 266.722 326.44C266.516 326.544 266.256 326.596 265.944 326.596ZM266.302 325.541C266.575 325.541 266.807 325.468 266.999 325.321C267.19 325.172 267.336 324.965 267.435 324.7C267.535 324.434 267.584 324.125 267.584 323.773C267.584 323.42 267.535 323.113 267.435 322.853C267.338 322.593 267.194 322.39 267.002 322.246C266.813 322.101 266.579 322.029 266.302 322.029C266.016 322.029 265.777 322.104 265.585 322.253C265.393 322.402 265.249 322.608 265.152 322.871C265.055 323.134 265.006 323.434 265.006 323.773C265.006 324.114 265.055 324.418 265.152 324.685C265.251 324.951 265.397 325.16 265.589 325.314C265.783 325.465 266.021 325.541 266.302 325.541ZM273.695 324.206V321.045H274.981V326.5H273.734V325.531H273.677C273.554 325.836 273.352 326.086 273.07 326.28C272.791 326.474 272.446 326.571 272.037 326.571C271.679 326.571 271.363 326.492 271.089 326.333C270.816 326.172 270.603 325.939 270.449 325.634C270.295 325.326 270.218 324.954 270.218 324.518V321.045H271.504V324.32C271.504 324.665 271.599 324.94 271.788 325.143C271.977 325.347 272.226 325.449 272.534 325.449C272.723 325.449 272.907 325.403 273.084 325.31C273.262 325.218 273.407 325.081 273.521 324.898C273.637 324.714 273.695 324.483 273.695 324.206ZM278.682 326.607C278.137 326.607 277.67 326.487 277.279 326.248C276.891 326.009 276.591 325.679 276.381 325.257C276.172 324.833 276.068 324.346 276.068 323.794C276.068 323.24 276.175 322.751 276.388 322.327C276.601 321.901 276.901 321.57 277.29 321.333C277.68 321.094 278.142 320.974 278.675 320.974C279.117 320.974 279.509 321.056 279.85 321.219C280.193 321.38 280.467 321.609 280.67 321.905C280.874 322.198 280.99 322.542 281.018 322.935H279.79C279.74 322.672 279.622 322.453 279.435 322.278C279.25 322.1 279.003 322.011 278.692 322.011C278.43 322.011 278.199 322.082 278 322.224C277.801 322.364 277.646 322.565 277.535 322.828C277.426 323.091 277.371 323.406 277.371 323.773C277.371 324.144 277.426 324.464 277.535 324.732C277.644 324.997 277.796 325.201 277.993 325.346C278.192 325.488 278.425 325.559 278.692 325.559C278.882 325.559 279.051 325.523 279.2 325.452C279.352 325.379 279.478 325.274 279.58 325.136C279.682 324.999 279.752 324.832 279.79 324.636H281.018C280.988 325.022 280.874 325.364 280.677 325.662C280.481 325.958 280.213 326.19 279.875 326.358C279.536 326.524 279.139 326.607 278.682 326.607ZM284.798 321.045V322.04H281.662V321.045H284.798ZM282.436 319.739H283.722V324.859C283.722 325.032 283.748 325.165 283.8 325.257C283.854 325.347 283.925 325.409 284.013 325.442C284.1 325.475 284.198 325.491 284.304 325.491C284.385 325.491 284.458 325.486 284.524 325.474C284.593 325.462 284.645 325.451 284.68 325.442L284.897 326.447C284.828 326.47 284.73 326.496 284.602 326.525C284.477 326.553 284.323 326.57 284.141 326.575C283.819 326.584 283.529 326.536 283.271 326.429C283.013 326.32 282.808 326.152 282.656 325.925C282.507 325.697 282.434 325.413 282.436 325.072V319.739ZM288.469 326.599C287.957 326.599 287.503 326.512 287.105 326.337C286.71 326.161 286.397 325.918 286.168 325.605C285.938 325.293 285.816 324.932 285.802 324.522H287.137C287.149 324.719 287.214 324.89 287.332 325.037C287.451 325.181 287.608 325.294 287.805 325.374C288.001 325.455 288.221 325.495 288.465 325.495C288.726 325.495 288.956 325.45 289.158 325.36C289.359 325.268 289.516 325.14 289.63 324.977C289.744 324.813 289.799 324.625 289.797 324.412C289.799 324.192 289.742 323.998 289.626 323.83C289.51 323.661 289.342 323.53 289.122 323.435C288.904 323.341 288.641 323.293 288.334 323.293H287.691V322.278H288.334C288.587 322.278 288.808 322.234 288.998 322.146C289.19 322.059 289.34 321.936 289.449 321.777C289.558 321.616 289.611 321.43 289.609 321.219C289.611 321.013 289.565 320.835 289.47 320.683C289.378 320.529 289.246 320.41 289.076 320.325C288.908 320.239 288.71 320.197 288.483 320.197C288.26 320.197 288.054 320.237 287.865 320.317C287.676 320.398 287.523 320.513 287.407 320.662C287.291 320.809 287.229 320.984 287.222 321.188H285.954C285.964 320.78 286.081 320.423 286.306 320.115C286.533 319.805 286.836 319.563 287.215 319.391C287.594 319.215 288.019 319.128 288.49 319.128C288.975 319.128 289.397 319.219 289.754 319.401C290.114 319.581 290.392 319.824 290.589 320.129C290.785 320.435 290.883 320.772 290.883 321.141C290.886 321.551 290.765 321.894 290.521 322.171C290.28 322.448 289.963 322.629 289.57 322.714V322.771C290.081 322.842 290.473 323.032 290.745 323.339C291.02 323.645 291.156 324.025 291.153 324.479C291.153 324.887 291.037 325.251 290.805 325.573C290.576 325.893 290.258 326.144 289.854 326.326C289.451 326.508 288.99 326.599 288.469 326.599Z" fill="#5F666C"/>
<path d="M331.761 324.935C330.692 329.221 326.351 331.829 322.065 330.761C317.781 329.692 315.173 325.351 316.241 321.066C317.309 316.779 321.65 314.171 325.935 315.239C330.221 316.308 332.829 320.649 331.761 324.935H331.761Z" fill="#FDB600"/>
<path d="M336.717 326.5V319.227H339.445C340.003 319.227 340.472 319.331 340.851 319.54C341.232 319.748 341.52 320.035 341.714 320.399C341.91 320.761 342.009 321.173 342.009 321.635C342.009 322.101 341.91 322.516 341.714 322.878C341.517 323.24 341.227 323.525 340.844 323.734C340.46 323.94 339.988 324.043 339.427 324.043H337.619V322.96H339.249C339.576 322.96 339.844 322.903 340.052 322.789C340.26 322.675 340.414 322.519 340.513 322.32C340.615 322.121 340.666 321.893 340.666 321.635C340.666 321.377 340.615 321.15 340.513 320.953C340.414 320.757 340.259 320.604 340.048 320.495C339.84 320.384 339.571 320.328 339.242 320.328H338.035V326.5H336.717ZM343.096 326.5V321.045H344.343V321.955H344.399C344.499 321.64 344.669 321.397 344.911 321.227C345.155 321.054 345.433 320.967 345.745 320.967C345.816 320.967 345.896 320.971 345.983 320.978C346.073 320.983 346.148 320.991 346.207 321.003V322.185C346.152 322.166 346.066 322.15 345.948 322.136C345.832 322.119 345.719 322.111 345.61 322.111C345.376 322.111 345.165 322.162 344.978 322.263C344.794 322.363 344.648 322.501 344.541 322.679C344.435 322.857 344.382 323.061 344.382 323.293V326.5H343.096ZM349.216 326.607C348.683 326.607 348.221 326.489 347.831 326.255C347.44 326.021 347.137 325.693 346.922 325.271C346.708 324.85 346.602 324.357 346.602 323.794C346.602 323.231 346.708 322.737 346.922 322.313C347.137 321.889 347.44 321.56 347.831 321.326C348.221 321.092 348.683 320.974 349.216 320.974C349.748 320.974 350.21 321.092 350.6 321.326C350.991 321.56 351.293 321.889 351.506 322.313C351.721 322.737 351.829 323.231 351.829 323.794C351.829 324.357 351.721 324.85 351.506 325.271C351.293 325.693 350.991 326.021 350.6 326.255C350.21 326.489 349.748 326.607 349.216 326.607ZM349.223 325.577C349.511 325.577 349.753 325.497 349.947 325.339C350.141 325.178 350.286 324.962 350.38 324.692C350.477 324.423 350.526 324.122 350.526 323.79C350.526 323.457 350.477 323.155 350.38 322.885C350.286 322.613 350.141 322.396 349.947 322.235C349.753 322.074 349.511 321.994 349.223 321.994C348.927 321.994 348.681 322.074 348.484 322.235C348.29 322.396 348.144 322.613 348.047 322.885C347.953 323.155 347.905 323.457 347.905 323.79C347.905 324.122 347.953 324.423 348.047 324.692C348.144 324.962 348.29 325.178 348.484 325.339C348.681 325.497 348.927 325.577 349.223 325.577ZM354.944 326.596C354.516 326.596 354.132 326.486 353.794 326.266C353.455 326.045 353.188 325.726 352.991 325.307C352.795 324.888 352.697 324.379 352.697 323.78C352.697 323.174 352.796 322.662 352.995 322.246C353.196 321.827 353.467 321.511 353.808 321.298C354.149 321.082 354.529 320.974 354.948 320.974C355.268 320.974 355.53 321.029 355.736 321.138C355.942 321.244 356.106 321.373 356.226 321.525C356.347 321.674 356.441 321.815 356.507 321.947H356.56V319.227H357.849V326.5H356.585V325.641H356.507C356.441 325.773 356.345 325.914 356.219 326.063C356.094 326.21 355.928 326.335 355.722 326.44C355.516 326.544 355.257 326.596 354.944 326.596ZM355.303 325.541C355.575 325.541 355.807 325.468 355.999 325.321C356.191 325.172 356.336 324.965 356.436 324.7C356.535 324.434 356.585 324.125 356.585 323.773C356.585 323.42 356.535 323.113 356.436 322.853C356.339 322.593 356.194 322.39 356.003 322.246C355.813 322.101 355.58 322.029 355.303 322.029C355.017 322.029 354.778 322.104 354.586 322.253C354.394 322.402 354.25 322.608 354.153 322.871C354.055 323.134 354.007 323.434 354.007 323.773C354.007 324.114 354.055 324.418 354.153 324.685C354.252 324.951 354.398 325.16 354.589 325.314C354.783 325.465 355.021 325.541 355.303 325.541ZM362.696 324.206V321.045H363.981V326.5H362.735V325.531H362.678C362.555 325.836 362.352 326.086 362.071 326.28C361.791 326.474 361.447 326.571 361.037 326.571C360.68 326.571 360.364 326.492 360.089 326.333C359.817 326.172 359.604 325.939 359.45 325.634C359.296 325.326 359.219 324.954 359.219 324.518V321.045H360.505V324.32C360.505 324.665 360.599 324.94 360.789 325.143C360.978 325.347 361.227 325.449 361.534 325.449C361.724 325.449 361.907 325.403 362.085 325.31C362.262 325.218 362.408 325.081 362.522 324.898C362.638 324.714 362.696 324.483 362.696 324.206ZM367.682 326.607C367.138 326.607 366.67 326.487 366.28 326.248C365.891 326.009 365.592 325.679 365.381 325.257C365.173 324.833 365.069 324.346 365.069 323.794C365.069 323.24 365.175 322.751 365.388 322.327C365.601 321.901 365.902 321.57 366.29 321.333C366.681 321.094 367.143 320.974 367.675 320.974C368.118 320.974 368.51 321.056 368.851 321.219C369.194 321.38 369.467 321.609 369.671 321.905C369.875 322.198 369.991 322.542 370.019 322.935H368.79C368.741 322.672 368.622 322.453 368.435 322.278C368.251 322.1 368.003 322.011 367.693 322.011C367.43 322.011 367.199 322.082 367.001 322.224C366.802 322.364 366.647 322.565 366.535 322.828C366.426 323.091 366.372 323.406 366.372 323.773C366.372 324.144 366.426 324.464 366.535 324.732C366.644 324.997 366.797 325.201 366.993 325.346C367.192 325.488 367.425 325.559 367.693 325.559C367.882 325.559 368.052 325.523 368.201 325.452C368.352 325.379 368.479 325.274 368.581 325.136C368.683 324.999 368.752 324.832 368.79 324.636H370.019C369.988 325.022 369.875 325.364 369.678 325.662C369.482 325.958 369.214 326.19 368.876 326.358C368.537 326.524 368.139 326.607 367.682 326.607ZM373.798 321.045V322.04H370.663V321.045H373.798ZM371.437 319.739H372.722V324.859C372.722 325.032 372.748 325.165 372.8 325.257C372.855 325.347 372.926 325.409 373.013 325.442C373.101 325.475 373.198 325.491 373.305 325.491C373.385 325.491 373.459 325.486 373.525 325.474C373.594 325.462 373.646 325.451 373.681 325.442L373.898 326.447C373.829 326.47 373.731 326.496 373.603 326.525C373.478 326.553 373.324 326.57 373.141 326.575C372.819 326.584 372.529 326.536 372.271 326.429C372.013 326.32 371.808 326.152 371.657 325.925C371.508 325.697 371.434 325.413 371.437 325.072V319.739ZM377.208 325.151V324.103L380.294 319.227H381.168V320.719H380.635L378.558 324.011V324.067H382.865V325.151H377.208ZM380.678 326.5V324.831L380.692 324.362V319.227H381.935V326.5H380.678Z" fill="#5F666C"/>
</g>
<defs>
<filter id="filter0_d_103_4331" x="0" y="0" width="432" height="379" filterUnits="userSpaceOnUse" color-interpolation-filters="sRGB">
<feFlood flood-opacity="0" result="BackgroundImageFix"/>
<feColorMatrix in="SourceAlpha" type="matrix" values="0 0 0 0 0 0 0 0 0 0 0 0 0 0 0 0 0 0 127 0" result="hardAlpha"/>
<feOffset/>
<feGaussianBlur stdDeviation="8"/>
<feComposite in2="hardAlpha" operator="out"/>
<feColorMatrix type="matrix" values="0 0 0 0 0 0 0 0 0 0 0 0 0 0 0 0 0 0 0.06 0"/>
<feBlend mode="normal" in2="BackgroundImageFix" result="effect1_dropShadow_103_4331"/>
<feBlend mode="normal" in="SourceGraphic" in2="effect1_dropShadow_103_4331" result="shape"/>
</filter>
<filter id="filter1_d_103_4331" x="252" y="13" width="148" height="66" filterUnits="userSpaceOnUse" color-interpolation-filters="sRGB">
<feFlood flood-opacity="0" result="BackgroundImageFix"/>
<feColorMatrix in="SourceAlpha" type="matrix" values="0 0 0 0 0 0 0 0 0 0 0 0 0 0 0 0 0 0 127 0" result="hardAlpha"/>
<feOffset/>
<feGaussianBlur stdDeviation="8"/>
<feComposite in2="hardAlpha" operator="out"/>
<feColorMatrix type="matrix" values="0 0 0 0 0 0 0 0 0 0 0 0 0 0 0 0 0 0 0.08 0"/>
<feBlend mode="normal" in2="BackgroundImageFix" result="effect1_dropShadow_103_4331"/>
<feBlend mode="normal" in="SourceGraphic" in2="effect1_dropShadow_103_4331" result="shape"/>
</filter>
<clipPath id="clip0_103_4331">
<rect width="16" height="16" fill="white" transform="translate(352 37)"/>
</clipPath>
<clipPath id="clip1_103_4331">
<rect width="220" height="220" fill="white" transform="translate(106 79)"/>
</clipPath>
</defs>
</svg>
