<svg width="450" height="412" viewBox="0 0 450 412" fill="none" xmlns="http://www.w3.org/2000/svg">
<g filter="url(#filter0_d_104_2536)">
<rect x="16" y="16" width="418" height="380" rx="10" fill="white" shape-rendering="crispEdges"/>
<path d="M48.7102 41.4901V38.9545H60.6562V41.4901H56.2031V53.5H53.1634V41.4901H48.7102ZM62.5668 53.5V42.5909H65.5923V53.5H62.5668ZM64.0866 41.1847C63.6368 41.1847 63.2509 41.0355 62.929 40.7372C62.6117 40.4342 62.4531 40.072 62.4531 39.6506C62.4531 39.2339 62.6117 38.8764 62.929 38.5781C63.2509 38.2751 63.6368 38.1236 64.0866 38.1236C64.5365 38.1236 64.92 38.2751 65.2372 38.5781C65.5592 38.8764 65.7202 39.2339 65.7202 39.6506C65.7202 40.072 65.5592 40.4342 65.2372 40.7372C64.92 41.0355 64.5365 41.1847 64.0866 41.1847ZM73.8185 42.5909V44.8636H67.2489V42.5909H73.8185ZM68.7404 39.9773H71.766V50.1477C71.766 50.4271 71.8086 50.6449 71.8938 50.8011C71.979 50.9527 72.0974 51.0592 72.2489 51.1207C72.4052 51.1823 72.5851 51.2131 72.7887 51.2131C72.9308 51.2131 73.0728 51.2012 73.2148 51.1776C73.3569 51.1491 73.4658 51.1278 73.5415 51.1136L74.0174 53.3651C73.8659 53.4124 73.6528 53.4669 73.3782 53.5284C73.1036 53.5947 72.7698 53.6349 72.3768 53.6491C71.6476 53.6776 71.0084 53.5805 70.4592 53.358C69.9147 53.1354 69.4909 52.7898 69.1879 52.321C68.8848 51.8523 68.7357 51.2604 68.7404 50.5455V39.9773ZM79.0494 38.9545V53.5H76.0238V38.9545H79.0494ZM86.4446 53.7131C85.3224 53.7131 84.3565 53.4858 83.5469 53.0312C82.742 52.572 82.1217 51.9233 81.6861 51.0852C81.2505 50.2424 81.0327 49.2457 81.0327 48.0952C81.0327 46.973 81.2505 45.9882 81.6861 45.1406C82.1217 44.2931 82.7348 43.6326 83.5256 43.1591C84.321 42.6856 85.2538 42.4489 86.3239 42.4489C87.0436 42.4489 87.7135 42.5649 88.3338 42.7969C88.9588 43.0241 89.5033 43.3674 89.9673 43.8267C90.4361 44.286 90.8007 44.8636 91.0611 45.5597C91.3215 46.2509 91.4517 47.0606 91.4517 47.9886V48.8196H82.2401V46.9446H88.6037C88.6037 46.509 88.509 46.1231 88.3196 45.7869C88.1302 45.4508 87.8674 45.188 87.5312 44.9986C87.1998 44.8045 86.8139 44.7074 86.3736 44.7074C85.9143 44.7074 85.5071 44.8139 85.152 45.027C84.8016 45.2353 84.527 45.517 84.3281 45.8722C84.1293 46.2225 84.0275 46.6132 84.0227 47.044V48.8267C84.0227 49.3665 84.1222 49.8329 84.321 50.2259C84.5246 50.6188 84.8111 50.9219 85.1804 51.1349C85.5497 51.348 85.9877 51.4545 86.4943 51.4545C86.8305 51.4545 87.1383 51.4072 87.4176 51.3125C87.697 51.2178 87.9361 51.0758 88.1349 50.8864C88.3338 50.697 88.4853 50.465 88.5895 50.1903L91.3878 50.375C91.2457 51.0473 90.9545 51.6345 90.5142 52.1364C90.0786 52.6335 89.5152 53.0218 88.8239 53.3011C88.1373 53.5758 87.3442 53.7131 86.4446 53.7131Z" fill="#343A40"/>
<g filter="url(#filter1_d_104_2536)">
<rect x="286" y="29" width="116" height="34" rx="10" fill="white" shape-rendering="crispEdges"/>
<path d="M307.452 51.1392C306.998 51.1326 306.551 51.0497 306.11 50.8906C305.672 50.7315 305.275 50.4664 304.917 50.0952C304.559 49.724 304.272 49.2251 304.056 48.5987C303.844 47.9723 303.738 47.1901 303.738 46.2521C303.738 45.3639 303.826 44.575 304.002 43.8857C304.181 43.1963 304.438 42.6146 304.772 42.1406C305.107 41.6634 305.511 41.3004 305.985 41.0518C306.459 40.8033 306.991 40.679 307.581 40.679C308.188 40.679 308.726 40.7983 309.197 41.0369C309.668 41.2756 310.049 41.6054 310.341 42.0263C310.636 42.4472 310.823 42.9261 310.902 43.4631H309.386C309.283 43.0388 309.079 42.6925 308.775 42.424C308.47 42.1555 308.072 42.0213 307.581 42.0213C306.836 42.0213 306.254 42.3461 305.836 42.9957C305.422 43.6454 305.213 44.5485 305.21 45.7053H305.284C305.46 45.4169 305.676 45.1716 305.931 44.9695C306.189 44.764 306.478 44.6065 306.796 44.4972C307.117 44.3845 307.455 44.3281 307.81 44.3281C308.4 44.3281 308.934 44.4723 309.411 44.7607C309.891 45.0457 310.274 45.4401 310.559 45.9439C310.844 46.4477 310.987 47.0244 310.987 47.674C310.987 48.3236 310.839 48.9119 310.544 49.4389C310.253 49.9659 309.842 50.3835 309.311 50.6918C308.781 50.9967 308.161 51.1458 307.452 51.1392ZM307.447 49.8466C307.838 49.8466 308.188 49.7505 308.496 49.5582C308.804 49.366 309.048 49.1075 309.227 48.7827C309.406 48.4579 309.495 48.0949 309.495 47.6939C309.495 47.3028 309.408 46.9465 309.232 46.625C309.06 46.3035 308.821 46.0483 308.516 45.8594C308.214 45.6705 307.87 45.576 307.482 45.576C307.187 45.576 306.913 45.6323 306.662 45.745C306.413 45.8577 306.194 46.0135 306.005 46.2124C305.816 46.4112 305.667 46.6399 305.558 46.8984C305.452 47.1536 305.399 47.4238 305.399 47.7088C305.399 48.09 305.487 48.4429 305.662 48.7678C305.841 49.0926 306.085 49.3544 306.393 49.5533C306.705 49.7488 307.056 49.8466 307.447 49.8466ZM316.523 51V43.3636H317.95V44.6065H318.044C318.203 44.1856 318.463 43.8575 318.825 43.6222C319.186 43.3835 319.618 43.2642 320.122 43.2642C320.633 43.2642 321.06 43.3835 321.405 43.6222C321.753 43.8608 322.01 44.1889 322.175 44.6065H322.255C322.437 44.1989 322.727 43.8741 323.125 43.6321C323.523 43.3868 323.997 43.2642 324.547 43.2642C325.24 43.2642 325.805 43.4813 326.242 43.9155C326.683 44.3497 326.903 45.0043 326.903 45.8793V51H325.417V46.0185C325.417 45.5014 325.276 45.1269 324.994 44.8949C324.713 44.6629 324.376 44.5469 323.985 44.5469C323.501 44.5469 323.125 44.696 322.857 44.9943C322.588 45.2893 322.454 45.6688 322.454 46.1328V51H320.972V45.924C320.972 45.5097 320.843 45.1766 320.585 44.9247C320.326 44.6728 319.99 44.5469 319.575 44.5469C319.294 44.5469 319.033 44.6214 318.795 44.7706C318.559 44.9164 318.369 45.1203 318.223 45.3821C318.08 45.6439 318.009 45.9472 318.009 46.2919V51H316.523ZM332.112 51.1541C331.396 51.1541 330.772 50.9901 330.238 50.6619C329.704 50.3338 329.29 49.8748 328.995 49.2848C328.7 48.6948 328.553 48.0054 328.553 47.2166C328.553 46.4245 328.7 45.7318 328.995 45.1385C329.29 44.5452 329.704 44.0845 330.238 43.7564C330.772 43.4283 331.396 43.2642 332.112 43.2642C332.828 43.2642 333.453 43.4283 333.987 43.7564C334.52 44.0845 334.935 44.5452 335.23 45.1385C335.525 45.7318 335.672 46.4245 335.672 47.2166C335.672 48.0054 335.525 48.6948 335.23 49.2848C334.935 49.8748 334.52 50.3338 333.987 50.6619C333.453 50.9901 332.828 51.1541 332.112 51.1541ZM332.117 49.9062C332.581 49.9062 332.966 49.7836 333.271 49.5384C333.576 49.2931 333.801 48.9666 333.947 48.5589C334.096 48.1513 334.171 47.7022 334.171 47.2116C334.171 46.7244 334.096 46.277 333.947 45.8693C333.801 45.4583 333.576 45.1286 333.271 44.88C332.966 44.6314 332.581 44.5071 332.117 44.5071C331.65 44.5071 331.262 44.6314 330.954 44.88C330.649 45.1286 330.422 45.4583 330.273 45.8693C330.127 46.277 330.054 46.7244 330.054 47.2116C330.054 47.7022 330.127 48.1513 330.273 48.5589C330.422 48.9666 330.649 49.2931 330.954 49.5384C331.262 49.7836 331.65 49.9062 332.117 49.9062ZM338.818 46.4659V51H337.331V43.3636H338.758V44.6065H338.853C339.028 44.2022 339.303 43.8774 339.678 43.6321C340.056 43.3868 340.531 43.2642 341.105 43.2642C341.625 43.2642 342.081 43.3736 342.472 43.5923C342.863 43.8078 343.166 44.1293 343.382 44.5568C343.597 44.9844 343.705 45.513 343.705 46.1428V51H342.218V46.3217C342.218 45.7682 342.074 45.3357 341.786 45.0241C341.498 44.7093 341.101 44.5518 340.598 44.5518C340.253 44.5518 339.946 44.6264 339.678 44.7756C339.413 44.9247 339.202 45.1435 339.047 45.4318C338.894 45.7169 338.818 46.0616 338.818 46.4659ZM349.263 43.3636V44.5568H345.092V43.3636H349.263ZM346.211 41.5341H347.697V48.7578C347.697 49.0462 347.74 49.2633 347.826 49.4091C347.913 49.5516 348.024 49.6494 348.159 49.7024C348.299 49.7521 348.449 49.777 348.612 49.777C348.731 49.777 348.836 49.7687 348.925 49.7521C349.015 49.7356 349.084 49.7223 349.134 49.7124L349.402 50.9403C349.316 50.9735 349.194 51.0066 349.034 51.0398C348.875 51.0762 348.676 51.0961 348.438 51.0994C348.047 51.1061 347.682 51.0365 347.344 50.8906C347.006 50.7448 346.733 50.5194 346.524 50.2145C346.315 49.9096 346.211 49.5268 346.211 49.0661V41.5341ZM352.558 46.4659V51H351.072V40.8182H352.538V44.6065H352.633C352.812 44.1955 353.085 43.8691 353.453 43.6271C353.821 43.3852 354.301 43.2642 354.895 43.2642C355.418 43.2642 355.876 43.3719 356.267 43.5874C356.661 43.8028 356.966 44.1243 357.182 44.5518C357.4 44.9761 357.51 45.5064 357.51 46.1428V51H356.023V46.3217C356.023 45.7616 355.879 45.3274 355.591 45.0192C355.302 44.7076 354.901 44.5518 354.388 44.5518C354.036 44.5518 353.721 44.6264 353.443 44.7756C353.168 44.9247 352.951 45.1435 352.792 45.4318C352.636 45.7169 352.558 46.0616 352.558 46.4659ZM365.216 45.228L363.868 45.4666C363.812 45.2943 363.723 45.1302 363.6 44.9744C363.481 44.8187 363.318 44.6911 363.113 44.5916C362.907 44.4922 362.65 44.4425 362.342 44.4425C361.921 44.4425 361.57 44.5369 361.288 44.7259C361.006 44.9115 360.866 45.1518 360.866 45.4467C360.866 45.7019 360.96 45.9074 361.149 46.0632C361.338 46.219 361.643 46.3466 362.064 46.446L363.277 46.7244C363.979 46.8868 364.503 47.1371 364.848 47.4751C365.193 47.8132 365.365 48.2524 365.365 48.7926C365.365 49.25 365.232 49.6577 364.967 50.0156C364.705 50.3703 364.339 50.6487 363.868 50.8509C363.401 51.053 362.859 51.1541 362.243 51.1541C361.388 51.1541 360.69 50.9718 360.15 50.6072C359.609 50.2393 359.278 49.7173 359.155 49.0412L360.592 48.8224C360.682 49.197 360.866 49.4804 361.144 49.6726C361.422 49.8615 361.785 49.956 362.233 49.956C362.72 49.956 363.109 49.8549 363.401 49.6527C363.693 49.4472 363.839 49.197 363.839 48.902C363.839 48.6634 363.749 48.4628 363.57 48.3004C363.394 48.138 363.124 48.0154 362.76 47.9325L361.467 47.6491C360.755 47.4867 360.228 47.2282 359.886 46.8736C359.548 46.5189 359.379 46.0698 359.379 45.5263C359.379 45.0755 359.505 44.6811 359.757 44.343C360.009 44.005 360.357 43.7415 360.801 43.5526C361.245 43.3603 361.754 43.2642 362.327 43.2642C363.153 43.2642 363.802 43.4432 364.276 43.8011C364.75 44.1558 365.063 44.6314 365.216 45.228Z" fill="#343A40"/>
<g clip-path="url(#clip0_104_2536)">
<path d="M374.667 43.6667L378 47.0001L381.333 43.6667H374.667Z" fill="#343A40"/>
</g>
</g>
<path d="M143.14 148.526L223.557 110.505L303.974 148.526L323.832 233.943L268.187 302.448H178.927L123.282 233.943L143.14 148.526Z" stroke="#EAEAEA"/>
<path d="M174.728 173.257L223.557 150.171L272.387 173.257L284.443 225.117L250.657 266.71H196.457L162.671 225.117L174.728 173.257Z" stroke="#EAEAEA"/>
<path d="M207.819 199.166L223.557 191.725L239.295 199.166L243.178 215.87L232.293 229.271H214.821L203.936 215.87L207.819 199.166Z" stroke="#EAEAEA"/>
<path d="M123.514 233.671L223.557 211.477L303.399 148.673" stroke="#EAEAEA"/>
<path d="M268.596 302.729L224.322 211.898L144.208 149.429" stroke="#EAEAEA"/>
<path d="M224.297 110.817L223.975 211.512L178.887 301.674" stroke="#EAEAEA"/>
<path d="M224.038 211.949L323.601 234.143" stroke="#EAEAEA"/>
<path d="M213.676 95.8977C213.804 95.9937 214 96.0897 214.264 96.1857C214.528 96.2737 214.84 96.3177 215.2 96.3177C215.552 96.3177 215.836 96.2617 216.052 96.1497C216.276 96.0297 216.444 95.8537 216.556 95.6217C216.676 95.3817 216.756 95.0777 216.796 94.7097C216.844 94.3417 216.868 93.9057 216.868 93.4017V88.8777H218.224V93.2097C218.224 93.8417 218.188 94.4217 218.116 94.9497C218.052 95.4777 217.92 95.9377 217.72 96.3297C217.52 96.7137 217.22 97.0097 216.82 97.2177C216.428 97.4257 215.9 97.5297 215.236 97.5297C214.844 97.5297 214.496 97.4857 214.192 97.3977C213.888 97.3097 213.608 97.1777 213.352 97.0017L213.676 95.8977ZM219.322 95.5617C219.322 95.1617 219.434 94.8137 219.658 94.5177C219.89 94.2137 220.206 93.9817 220.606 93.8217C221.006 93.6537 221.47 93.5697 221.998 93.5697C222.278 93.5697 222.562 93.5897 222.85 93.6297C223.146 93.6697 223.406 93.7337 223.63 93.8217V93.4257C223.63 92.9857 223.498 92.6417 223.234 92.3937C222.97 92.1457 222.59 92.0217 222.094 92.0217C221.742 92.0217 221.41 92.0857 221.098 92.2137C220.786 92.3337 220.454 92.5057 220.102 92.7297L219.658 91.8417C220.074 91.5617 220.49 91.3537 220.906 91.2177C221.33 91.0817 221.774 91.0137 222.238 91.0137C223.078 91.0137 223.738 91.2377 224.218 91.6857C224.706 92.1257 224.95 92.7537 224.95 93.5697V95.9097C224.95 96.0617 224.974 96.1697 225.022 96.2337C225.078 96.2977 225.17 96.3337 225.298 96.3417V97.3977C225.178 97.4217 225.07 97.4377 224.974 97.4457C224.878 97.4537 224.798 97.4577 224.734 97.4577C224.454 97.4577 224.242 97.3897 224.098 97.2537C223.954 97.1177 223.87 96.9577 223.846 96.7737L223.81 96.4137C223.538 96.7657 223.19 97.0377 222.766 97.2297C222.342 97.4217 221.914 97.5177 221.482 97.5177C221.066 97.5177 220.694 97.4337 220.366 97.2657C220.038 97.0897 219.782 96.8537 219.598 96.5577C219.414 96.2617 219.322 95.9297 219.322 95.5617ZM223.318 95.9457C223.414 95.8417 223.49 95.7377 223.546 95.6337C223.602 95.5297 223.63 95.4377 223.63 95.3577V94.6377C223.406 94.5497 223.17 94.4857 222.922 94.4457C222.674 94.3977 222.43 94.3737 222.19 94.3737C221.71 94.3737 221.318 94.4697 221.014 94.6617C220.718 94.8537 220.57 95.1177 220.57 95.4537C220.57 95.6377 220.618 95.8137 220.714 95.9817C220.818 96.1497 220.962 96.2857 221.146 96.3897C221.338 96.4937 221.574 96.5457 221.854 96.5457C222.142 96.5457 222.418 96.4897 222.682 96.3777C222.946 96.2657 223.158 96.1217 223.318 95.9457ZM232.18 97.3977H230.86V93.8817C230.86 93.2977 230.764 92.8697 230.572 92.5977C230.388 92.3257 230.112 92.1897 229.744 92.1897C229.488 92.1897 229.232 92.2537 228.976 92.3817C228.728 92.5097 228.504 92.6857 228.304 92.9097C228.104 93.1257 227.96 93.3777 227.872 93.6657V97.3977H226.552V91.1217H227.752V92.3817C227.912 92.1017 228.12 91.8617 228.376 91.6617C228.64 91.4537 228.936 91.2937 229.264 91.1817C229.592 91.0697 229.94 91.0137 230.308 91.0137C230.684 91.0137 230.992 91.0817 231.232 91.2177C231.48 91.3537 231.672 91.5417 231.808 91.7817C231.952 92.0137 232.048 92.2857 232.096 92.5977C232.152 92.9017 232.18 93.2257 232.18 93.5697V97.3977Z" fill="#6C757D"/>
<path d="M308.647 146.507V137.987H314.323V139.175H309.991V141.719H313.615V142.835H309.991V146.507H308.647ZM317.897 146.627C317.409 146.627 316.965 146.543 316.565 146.375C316.173 146.199 315.833 145.963 315.545 145.667C315.257 145.363 315.033 145.019 314.873 144.635C314.721 144.243 314.645 143.827 314.645 143.387C314.645 142.795 314.781 142.255 315.053 141.767C315.325 141.271 315.705 140.875 316.193 140.579C316.681 140.275 317.253 140.123 317.909 140.123C318.565 140.123 319.129 140.275 319.601 140.579C320.081 140.875 320.453 141.267 320.717 141.755C320.981 142.243 321.113 142.767 321.113 143.327C321.113 143.423 321.109 143.515 321.101 143.603C321.093 143.683 321.085 143.751 321.077 143.807H316.049C316.073 144.175 316.173 144.499 316.349 144.779C316.533 145.051 316.765 145.267 317.045 145.427C317.325 145.579 317.625 145.655 317.945 145.655C318.297 145.655 318.629 145.567 318.941 145.391C319.261 145.215 319.477 144.983 319.589 144.695L320.717 145.019C320.581 145.323 320.373 145.599 320.093 145.847C319.821 146.087 319.497 146.279 319.121 146.423C318.745 146.559 318.337 146.627 317.897 146.627ZM316.013 142.931H319.805C319.781 142.571 319.677 142.255 319.493 141.983C319.317 141.703 319.089 141.487 318.809 141.335C318.537 141.175 318.233 141.095 317.897 141.095C317.569 141.095 317.265 141.175 316.985 141.335C316.713 141.487 316.489 141.703 316.313 141.983C316.137 142.255 316.037 142.571 316.013 142.931ZM325.574 146.627C325.094 146.627 324.658 146.515 324.266 146.291C323.882 146.059 323.578 145.751 323.354 145.367V146.507H322.19V137.747H323.51V141.419C323.758 141.019 324.066 140.703 324.434 140.471C324.81 140.239 325.25 140.123 325.754 140.123C326.17 140.123 326.55 140.211 326.894 140.387C327.238 140.563 327.53 140.803 327.77 141.107C328.018 141.411 328.206 141.759 328.334 142.151C328.47 142.543 328.538 142.959 328.538 143.399C328.538 143.839 328.462 144.255 328.31 144.647C328.166 145.039 327.958 145.383 327.686 145.679C327.414 145.975 327.098 146.207 326.738 146.375C326.386 146.543 325.998 146.627 325.574 146.627ZM325.226 145.499C325.514 145.499 325.778 145.443 326.018 145.331C326.258 145.211 326.466 145.055 326.642 144.863C326.818 144.671 326.95 144.447 327.038 144.191C327.134 143.935 327.182 143.671 327.182 143.399C327.182 143.023 327.102 142.671 326.942 142.343C326.79 142.015 326.574 141.751 326.294 141.551C326.014 141.351 325.69 141.251 325.322 141.251C325.058 141.251 324.81 141.315 324.578 141.443C324.346 141.563 324.138 141.727 323.954 141.935C323.778 142.135 323.63 142.359 323.51 142.607V144.263C323.558 144.447 323.642 144.615 323.762 144.767C323.882 144.911 324.022 145.039 324.182 145.151C324.342 145.255 324.514 145.339 324.698 145.403C324.882 145.467 325.058 145.499 325.226 145.499Z" fill="#6C757D"/>
<path d="M339.666 235.282V229.21L337.158 233.818H336.366L333.846 229.21V235.282H332.502V226.762H333.942L336.762 231.97L339.582 226.762H341.022V235.282H339.666ZM342.249 233.446C342.249 233.046 342.361 232.698 342.585 232.402C342.817 232.098 343.133 231.866 343.533 231.706C343.933 231.538 344.397 231.454 344.925 231.454C345.205 231.454 345.489 231.474 345.777 231.514C346.073 231.554 346.333 231.618 346.557 231.706V231.31C346.557 230.87 346.425 230.526 346.161 230.278C345.897 230.03 345.517 229.906 345.021 229.906C344.669 229.906 344.337 229.97 344.025 230.098C343.713 230.218 343.381 230.39 343.029 230.614L342.585 229.726C343.001 229.446 343.417 229.238 343.833 229.102C344.257 228.966 344.701 228.898 345.165 228.898C346.005 228.898 346.665 229.122 347.145 229.57C347.633 230.01 347.877 230.638 347.877 231.454V233.794C347.877 233.946 347.901 234.054 347.949 234.118C348.005 234.182 348.097 234.218 348.225 234.226V235.282C348.105 235.306 347.997 235.322 347.901 235.33C347.805 235.338 347.725 235.342 347.661 235.342C347.381 235.342 347.169 235.274 347.025 235.138C346.881 235.002 346.797 234.842 346.773 234.658L346.737 234.298C346.465 234.65 346.117 234.922 345.693 235.114C345.269 235.306 344.841 235.402 344.409 235.402C343.993 235.402 343.621 235.318 343.293 235.15C342.965 234.974 342.709 234.738 342.525 234.442C342.341 234.146 342.249 233.814 342.249 233.446ZM346.245 233.83C346.341 233.726 346.417 233.622 346.473 233.518C346.529 233.414 346.557 233.322 346.557 233.242V232.522C346.333 232.434 346.097 232.37 345.849 232.33C345.601 232.282 345.357 232.258 345.117 232.258C344.637 232.258 344.245 232.354 343.941 232.546C343.645 232.738 343.497 233.002 343.497 233.338C343.497 233.522 343.545 233.698 343.641 233.866C343.745 234.034 343.889 234.17 344.073 234.274C344.265 234.378 344.501 234.43 344.781 234.43C345.069 234.43 345.345 234.374 345.609 234.262C345.873 234.15 346.085 234.006 346.245 233.83ZM353.007 230.146C352.495 230.154 352.039 230.27 351.639 230.494C351.247 230.718 350.967 231.034 350.799 231.442V235.282H349.479V229.006H350.703V230.41C350.919 229.978 351.203 229.634 351.555 229.378C351.907 229.114 352.279 228.97 352.671 228.946C352.751 228.946 352.815 228.946 352.863 228.946C352.919 228.946 352.967 228.95 353.007 228.958V230.146Z" fill="#6C757D"/>
<path d="M277.039 309.871H278.311L281.623 318.391H280.207L279.307 316.075H276.019L275.131 318.391H273.703L277.039 309.871ZM279.043 315.079L277.675 311.347L276.259 315.079H279.043ZM286.072 318.511C285.568 318.511 285.124 318.391 284.74 318.151C284.356 317.911 284.052 317.599 283.828 317.215V320.947H282.508V312.115H283.672V313.243C283.912 312.867 284.224 312.567 284.608 312.343C284.992 312.119 285.42 312.007 285.892 312.007C286.324 312.007 286.72 312.095 287.08 312.271C287.44 312.439 287.752 312.675 288.016 312.979C288.28 313.283 288.484 313.631 288.628 314.023C288.78 314.407 288.856 314.815 288.856 315.247C288.856 315.847 288.736 316.395 288.496 316.891C288.264 317.387 287.936 317.783 287.512 318.079C287.096 318.367 286.616 318.511 286.072 318.511ZM285.64 317.383C285.92 317.383 286.172 317.323 286.396 317.203C286.628 317.083 286.824 316.923 286.984 316.723C287.152 316.523 287.28 316.295 287.368 316.039C287.456 315.783 287.5 315.519 287.5 315.247C287.5 314.959 287.452 314.687 287.356 314.431C287.26 314.175 287.12 313.951 286.936 313.759C286.76 313.567 286.552 313.415 286.312 313.303C286.08 313.191 285.824 313.135 285.544 313.135C285.376 313.135 285.2 313.167 285.016 313.231C284.832 313.295 284.66 313.383 284.5 313.495C284.34 313.607 284.2 313.739 284.08 313.891C283.96 314.043 283.876 314.203 283.828 314.371V316.015C283.94 316.271 284.088 316.503 284.272 316.711C284.456 316.911 284.668 317.075 284.908 317.203C285.148 317.323 285.392 317.383 285.64 317.383ZM293.572 313.255C293.06 313.263 292.604 313.379 292.204 313.603C291.812 313.827 291.532 314.143 291.364 314.551V318.391H290.044V312.115H291.268V313.519C291.484 313.087 291.768 312.743 292.12 312.487C292.472 312.223 292.844 312.079 293.236 312.055C293.316 312.055 293.38 312.055 293.428 312.055C293.484 312.055 293.532 312.059 293.572 312.067V313.255Z" fill="#6C757D"/>
<path d="M163.664 317.447V311.375L161.156 315.983H160.364L157.844 311.375V317.447H156.5V308.927H157.94L160.76 314.135L163.58 308.927H165.02V317.447H163.664ZM166.248 315.611C166.248 315.211 166.36 314.863 166.584 314.567C166.816 314.263 167.132 314.031 167.532 313.871C167.932 313.703 168.396 313.619 168.924 313.619C169.204 313.619 169.488 313.639 169.776 313.679C170.072 313.719 170.332 313.783 170.556 313.871V313.475C170.556 313.035 170.424 312.691 170.16 312.443C169.896 312.195 169.516 312.071 169.02 312.071C168.668 312.071 168.336 312.135 168.024 312.263C167.712 312.383 167.38 312.555 167.028 312.779L166.584 311.891C167 311.611 167.416 311.403 167.832 311.267C168.256 311.131 168.7 311.063 169.164 311.063C170.004 311.063 170.664 311.287 171.144 311.735C171.632 312.175 171.876 312.803 171.876 313.619V315.959C171.876 316.111 171.9 316.219 171.948 316.283C172.004 316.347 172.096 316.383 172.224 316.391V317.447C172.104 317.471 171.996 317.487 171.9 317.495C171.804 317.503 171.724 317.507 171.66 317.507C171.38 317.507 171.168 317.439 171.024 317.303C170.88 317.167 170.796 317.007 170.772 316.823L170.736 316.463C170.464 316.815 170.116 317.087 169.692 317.279C169.268 317.471 168.84 317.567 168.408 317.567C167.992 317.567 167.62 317.483 167.292 317.315C166.964 317.139 166.708 316.903 166.524 316.607C166.34 316.311 166.248 315.979 166.248 315.611ZM170.244 315.995C170.34 315.891 170.416 315.787 170.472 315.683C170.528 315.579 170.556 315.487 170.556 315.407V314.687C170.332 314.599 170.096 314.535 169.848 314.495C169.6 314.447 169.356 314.423 169.116 314.423C168.636 314.423 168.244 314.519 167.94 314.711C167.644 314.903 167.496 315.167 167.496 315.503C167.496 315.687 167.544 315.863 167.64 316.031C167.744 316.199 167.888 316.335 168.072 316.439C168.264 316.543 168.5 316.595 168.78 316.595C169.068 316.595 169.344 316.539 169.608 316.427C169.872 316.315 170.084 316.171 170.244 315.995ZM173.47 318.923C173.59 318.939 173.706 318.955 173.818 318.971C173.938 318.995 174.034 319.007 174.106 319.007C174.242 319.007 174.358 318.963 174.454 318.875C174.558 318.795 174.662 318.643 174.766 318.419C174.87 318.195 174.998 317.871 175.15 317.447L172.57 311.171H173.95L175.87 316.103L177.574 311.171H178.846L176.002 318.899C175.914 319.131 175.786 319.343 175.618 319.535C175.45 319.735 175.242 319.891 174.994 320.003C174.746 320.115 174.454 320.171 174.118 320.171C174.022 320.171 173.922 320.163 173.818 320.147C173.714 320.131 173.598 320.107 173.47 320.075V318.923Z" fill="#6C757D"/>
<path d="M97.9603 230.005C98.0883 230.101 98.2843 230.197 98.5483 230.293C98.8123 230.381 99.1243 230.425 99.4843 230.425C99.8363 230.425 100.12 230.369 100.336 230.257C100.56 230.137 100.728 229.961 100.84 229.729C100.96 229.489 101.04 229.185 101.08 228.817C101.128 228.449 101.152 228.013 101.152 227.509V222.985H102.508V227.317C102.508 227.949 102.472 228.529 102.4 229.057C102.336 229.585 102.204 230.045 102.004 230.437C101.804 230.821 101.504 231.117 101.104 231.325C100.712 231.533 100.184 231.637 99.5203 231.637C99.1283 231.637 98.7803 231.593 98.4763 231.505C98.1723 231.417 97.8923 231.285 97.6363 231.109L97.9603 230.005ZM104.026 229.069V225.229H105.346V228.805C105.346 229.365 105.446 229.789 105.646 230.077C105.854 230.357 106.154 230.497 106.546 230.497C106.794 230.497 107.034 230.445 107.266 230.341C107.506 230.237 107.722 230.085 107.914 229.885C108.114 229.677 108.274 229.429 108.394 229.141V225.229H109.714V230.017C109.714 230.169 109.742 230.277 109.798 230.341C109.854 230.405 109.946 230.441 110.074 230.449V231.505C109.938 231.529 109.826 231.545 109.738 231.553C109.65 231.561 109.566 231.565 109.486 231.565C109.246 231.565 109.046 231.501 108.886 231.373C108.726 231.237 108.634 231.065 108.61 230.857L108.586 230.233C108.306 230.689 107.942 231.037 107.494 231.277C107.046 231.509 106.554 231.625 106.018 231.625C105.362 231.625 104.866 231.409 104.53 230.977C104.194 230.545 104.026 229.909 104.026 229.069ZM117.026 231.505H115.706V227.989C115.706 227.405 115.61 226.977 115.418 226.705C115.234 226.433 114.958 226.297 114.59 226.297C114.334 226.297 114.078 226.361 113.822 226.489C113.574 226.617 113.35 226.793 113.15 227.017C112.95 227.233 112.806 227.485 112.718 227.773V231.505H111.398V225.229H112.598V226.489C112.758 226.209 112.966 225.969 113.222 225.769C113.486 225.561 113.782 225.401 114.11 225.289C114.438 225.177 114.786 225.121 115.154 225.121C115.53 225.121 115.838 225.189 116.078 225.325C116.326 225.461 116.518 225.649 116.654 225.889C116.798 226.121 116.894 226.393 116.942 226.705C116.998 227.009 117.026 227.333 117.026 227.677V231.505Z" fill="#6C757D"/>
<path d="M120.899 144.063C121.027 144.159 121.223 144.255 121.487 144.351C121.751 144.439 122.063 144.483 122.423 144.483C122.775 144.483 123.059 144.427 123.275 144.315C123.499 144.195 123.667 144.019 123.779 143.787C123.899 143.547 123.979 143.243 124.019 142.875C124.067 142.507 124.091 142.071 124.091 141.567V137.043H125.447V141.375C125.447 142.007 125.411 142.587 125.339 143.115C125.275 143.643 125.143 144.103 124.943 144.495C124.743 144.879 124.443 145.175 124.043 145.383C123.651 145.591 123.123 145.695 122.459 145.695C122.067 145.695 121.719 145.651 121.415 145.563C121.111 145.475 120.831 145.343 120.575 145.167L120.899 144.063ZM126.964 143.127V139.287H128.284V142.863C128.284 143.423 128.384 143.847 128.584 144.135C128.792 144.415 129.092 144.555 129.484 144.555C129.732 144.555 129.972 144.503 130.204 144.399C130.444 144.295 130.66 144.143 130.852 143.943C131.052 143.735 131.212 143.487 131.332 143.199V139.287H132.652V144.075C132.652 144.227 132.68 144.335 132.736 144.399C132.792 144.463 132.884 144.499 133.012 144.507V145.563C132.876 145.587 132.764 145.603 132.676 145.611C132.588 145.619 132.504 145.623 132.424 145.623C132.184 145.623 131.984 145.559 131.824 145.431C131.664 145.295 131.572 145.123 131.548 144.915L131.524 144.291C131.244 144.747 130.88 145.095 130.432 145.335C129.984 145.567 129.492 145.683 128.956 145.683C128.3 145.683 127.804 145.467 127.468 145.035C127.132 144.603 126.964 143.967 126.964 143.127ZM134.349 136.803H135.669V143.751C135.669 144.071 135.717 144.275 135.813 144.363C135.909 144.451 136.029 144.495 136.173 144.495C136.333 144.495 136.481 144.479 136.617 144.447C136.761 144.415 136.885 144.375 136.989 144.327L137.181 145.371C136.989 145.451 136.761 145.519 136.497 145.575C136.233 145.631 135.997 145.659 135.789 145.659C135.341 145.659 134.989 145.535 134.733 145.287C134.477 145.031 134.349 144.679 134.349 144.231V136.803Z" fill="#6C757D"/>
<path d="M155.25 201.398L148.25 231.898L159.25 251.398L206.75 237.898L236.25 262.898L302.75 231.898L254.25 222.398L258.75 189.398L215.25 143.398L148.25 156.898L155.25 201.398Z" fill="#FDB600" fill-opacity="0.5" stroke="#FDB600"/>
<path d="M167.25 229.398L202.75 277.898L283.75 250.898L275.75 212.398L283.75 178.898L235.25 129.398L219.75 135.898L200.25 174.398L172.25 197.398L167.25 229.398Z" fill="#9787FF" fill-opacity="0.5" stroke="#9787FF"/>
<path d="M52.8523 361.455V346.909H53.7841V361.455H52.8523ZM55.3239 351.71C55.2784 351.252 55.0833 350.896 54.7386 350.642C54.3939 350.388 53.9261 350.261 53.3352 350.261C52.9337 350.261 52.5947 350.318 52.3182 350.432C52.0417 350.542 51.8295 350.695 51.6818 350.892C51.5379 351.089 51.4659 351.312 51.4659 351.562C51.4583 351.771 51.5019 351.953 51.5966 352.108C51.6951 352.263 51.8295 352.398 52 352.511C52.1705 352.621 52.3674 352.718 52.5909 352.801C52.8144 352.881 53.053 352.949 53.3068 353.006L54.3523 353.256C54.8598 353.369 55.3258 353.521 55.75 353.71C56.1742 353.9 56.5417 354.133 56.8523 354.409C57.1629 354.686 57.4034 355.011 57.5739 355.386C57.7481 355.761 57.8371 356.191 57.8409 356.676C57.8371 357.388 57.6553 358.006 57.2955 358.528C56.9394 359.047 56.4242 359.451 55.75 359.739C55.0795 360.023 54.2708 360.165 53.3239 360.165C52.3845 360.165 51.5663 360.021 50.8693 359.733C50.1761 359.445 49.6345 359.019 49.2443 358.455C48.858 357.886 48.6553 357.184 48.6364 356.347H51.017C51.0436 356.737 51.1553 357.062 51.3523 357.324C51.553 357.581 51.8201 357.777 52.1534 357.909C52.4905 358.038 52.8712 358.102 53.2955 358.102C53.7121 358.102 54.0739 358.042 54.3807 357.92C54.6913 357.799 54.9318 357.631 55.1023 357.415C55.2727 357.199 55.358 356.951 55.358 356.67C55.358 356.409 55.2803 356.189 55.125 356.011C54.9735 355.833 54.75 355.682 54.4545 355.557C54.1629 355.432 53.8049 355.318 53.3807 355.216L52.1136 354.898C51.1326 354.659 50.358 354.286 49.7898 353.778C49.2216 353.271 48.9394 352.587 48.9432 351.727C48.9394 351.023 49.1269 350.407 49.5057 349.881C49.8883 349.354 50.4129 348.943 51.0795 348.648C51.7462 348.352 52.5038 348.205 53.3523 348.205C54.2159 348.205 54.9697 348.352 55.6136 348.648C56.2614 348.943 56.7652 349.354 57.125 349.881C57.4848 350.407 57.6705 351.017 57.6818 351.71H55.3239ZM59.2676 360V358.227L63.4096 354.392C63.7619 354.051 64.0573 353.744 64.296 353.472C64.5384 353.199 64.7221 352.932 64.8471 352.67C64.9721 352.405 65.0346 352.119 65.0346 351.812C65.0346 351.472 64.957 351.178 64.8016 350.932C64.6463 350.682 64.4342 350.491 64.1653 350.358C63.8963 350.222 63.5914 350.153 63.2505 350.153C62.8945 350.153 62.5838 350.225 62.3187 350.369C62.0535 350.513 61.849 350.72 61.7051 350.989C61.5611 351.258 61.4891 351.578 61.4891 351.949H59.1539C59.1539 351.187 59.3263 350.527 59.671 349.966C60.0157 349.405 60.4986 348.972 61.1198 348.665C61.741 348.358 62.457 348.205 63.2676 348.205C64.1009 348.205 64.8263 348.352 65.4437 348.648C66.0649 348.939 66.5479 349.345 66.8926 349.864C67.2373 350.383 67.4096 350.977 67.4096 351.648C67.4096 352.087 67.3225 352.521 67.1482 352.949C66.9778 353.377 66.6729 353.852 66.2335 354.375C65.7941 354.894 65.1748 355.517 64.3755 356.244L62.6766 357.909V357.989H67.563V360H59.2676ZM73.7482 360.256C72.7709 360.252 71.93 360.011 71.2255 359.534C70.5247 359.057 69.9849 358.366 69.6061 357.46C69.2311 356.555 69.0455 355.466 69.0493 354.193C69.0493 352.924 69.2368 351.843 69.6118 350.949C69.9906 350.055 70.5304 349.375 71.2311 348.909C71.9357 348.439 72.7747 348.205 73.7482 348.205C74.7217 348.205 75.5588 348.439 76.2595 348.909C76.9641 349.379 77.5058 350.061 77.8845 350.955C78.2633 351.845 78.4508 352.924 78.447 354.193C78.447 355.47 78.2577 356.561 77.8789 357.466C77.5039 358.371 76.966 359.062 76.2652 359.54C75.5645 360.017 74.7255 360.256 73.7482 360.256ZM73.7482 358.216C74.4148 358.216 74.947 357.881 75.3448 357.21C75.7425 356.54 75.9395 355.534 75.9357 354.193C75.9357 353.311 75.8448 352.576 75.663 351.989C75.4849 351.402 75.2311 350.96 74.9016 350.665C74.5758 350.369 74.1914 350.222 73.7482 350.222C73.0853 350.222 72.555 350.553 72.1573 351.216C71.7595 351.879 71.5588 352.871 71.555 354.193C71.555 355.087 71.644 355.833 71.822 356.432C72.0039 357.027 72.2595 357.473 72.5891 357.773C72.9186 358.068 73.305 358.216 73.7482 358.216ZM88.0503 360.159C87.4519 360.155 86.8742 360.055 86.3174 359.858C85.7644 359.661 85.2681 359.341 84.8288 358.898C84.3894 358.455 84.0409 357.867 83.7833 357.136C83.5295 356.405 83.4026 355.508 83.4026 354.443C83.4064 353.466 83.5181 352.593 83.7378 351.824C83.9613 351.051 84.2795 350.396 84.6924 349.858C85.1091 349.32 85.6072 348.911 86.1867 348.631C86.7663 348.347 87.4159 348.205 88.1356 348.205C88.9121 348.205 89.5977 348.356 90.1924 348.659C90.7871 348.958 91.2644 349.366 91.6242 349.881C91.9878 350.396 92.2075 350.973 92.2833 351.614H89.8572C89.7625 351.208 89.5636 350.89 89.2606 350.659C88.9575 350.428 88.5825 350.312 88.1356 350.312C87.378 350.312 86.8022 350.642 86.4083 351.301C86.0181 351.96 85.8193 352.856 85.8117 353.989H85.8913C86.0655 353.644 86.3003 353.35 86.5958 353.108C86.895 352.862 87.2341 352.674 87.6128 352.545C87.9954 352.413 88.3988 352.347 88.8231 352.347C89.5125 352.347 90.1261 352.509 90.664 352.835C91.2019 353.157 91.6261 353.6 91.9367 354.165C92.2473 354.729 92.4026 355.375 92.4026 356.102C92.4026 356.89 92.2189 357.591 91.8515 358.205C91.4878 358.818 90.9784 359.299 90.3231 359.648C89.6716 359.992 88.914 360.163 88.0503 360.159ZM88.039 358.227C88.4178 358.227 88.7568 358.136 89.056 357.955C89.3553 357.773 89.5901 357.527 89.7606 357.216C89.931 356.905 90.0163 356.557 90.0163 356.17C90.0163 355.784 89.931 355.437 89.7606 355.131C89.5939 354.824 89.3628 354.58 89.0674 354.398C88.7719 354.216 88.4348 354.125 88.056 354.125C87.7719 354.125 87.5087 354.178 87.2663 354.284C87.0276 354.39 86.8174 354.538 86.6356 354.727C86.4575 354.917 86.3174 355.136 86.2151 355.386C86.1128 355.633 86.0617 355.896 86.0617 356.176C86.0617 356.551 86.1469 356.894 86.3174 357.205C86.4916 357.515 86.7265 357.763 87.0219 357.949C87.3212 358.134 87.6602 358.227 88.039 358.227ZM94.4472 360L99.271 350.455V350.375H93.6517V348.364H101.816V350.403L96.9869 360H94.4472ZM107.449 360.159C106.574 360.159 105.796 360.017 105.114 359.733C104.436 359.445 103.904 359.053 103.517 358.557C103.131 358.061 102.938 357.498 102.938 356.869C102.938 356.384 103.048 355.939 103.267 355.534C103.491 355.125 103.794 354.786 104.176 354.517C104.559 354.244 104.987 354.07 105.46 353.994V353.915C104.839 353.79 104.335 353.489 103.949 353.011C103.563 352.53 103.37 351.972 103.37 351.335C103.37 350.733 103.546 350.197 103.898 349.727C104.25 349.254 104.733 348.883 105.347 348.614C105.964 348.341 106.665 348.205 107.449 348.205C108.233 348.205 108.932 348.341 109.546 348.614C110.163 348.886 110.648 349.259 111 349.733C111.353 350.203 111.531 350.737 111.534 351.335C111.531 351.975 111.334 352.534 110.943 353.011C110.553 353.489 110.053 353.79 109.443 353.915V353.994C109.909 354.07 110.332 354.244 110.71 354.517C111.093 354.786 111.396 355.125 111.62 355.534C111.847 355.939 111.962 356.384 111.966 356.869C111.962 357.498 111.767 358.061 111.381 358.557C110.995 359.053 110.46 359.445 109.779 359.733C109.101 360.017 108.324 360.159 107.449 360.159ZM107.449 358.352C107.839 358.352 108.18 358.282 108.472 358.142C108.763 357.998 108.991 357.801 109.154 357.551C109.32 357.297 109.404 357.006 109.404 356.676C109.404 356.339 109.318 356.042 109.148 355.784C108.978 355.523 108.746 355.318 108.455 355.17C108.163 355.019 107.828 354.943 107.449 354.943C107.074 354.943 106.739 355.019 106.443 355.17C106.148 355.318 105.915 355.523 105.745 355.784C105.578 356.042 105.495 356.339 105.495 356.676C105.495 357.006 105.576 357.297 105.739 357.551C105.902 357.801 106.131 357.998 106.426 358.142C106.722 358.282 107.063 358.352 107.449 358.352ZM107.449 353.153C107.775 353.153 108.065 353.087 108.318 352.955C108.572 352.822 108.771 352.638 108.915 352.403C109.059 352.169 109.131 351.898 109.131 351.591C109.131 351.288 109.059 351.023 108.915 350.795C108.771 350.564 108.574 350.384 108.324 350.256C108.074 350.123 107.782 350.057 107.449 350.057C107.12 350.057 106.828 350.123 106.574 350.256C106.32 350.384 106.121 350.564 105.978 350.795C105.837 351.023 105.767 351.288 105.767 351.591C105.767 351.898 105.839 352.169 105.983 352.403C106.127 352.638 106.326 352.822 106.58 352.955C106.834 353.087 107.123 353.153 107.449 353.153ZM114.636 360.148C114.261 360.148 113.939 360.015 113.67 359.75C113.405 359.481 113.272 359.159 113.272 358.784C113.272 358.413 113.405 358.095 113.67 357.83C113.939 357.564 114.261 357.432 114.636 357.432C114.999 357.432 115.317 357.564 115.59 357.83C115.863 358.095 115.999 358.413 115.999 358.784C115.999 359.034 115.935 359.263 115.806 359.472C115.681 359.676 115.516 359.841 115.312 359.966C115.107 360.087 114.882 360.148 114.636 360.148ZM121.676 360.159C120.801 360.159 120.023 360.017 119.341 359.733C118.663 359.445 118.131 359.053 117.744 358.557C117.358 358.061 117.165 357.498 117.165 356.869C117.165 356.384 117.274 355.939 117.494 355.534C117.718 355.125 118.021 354.786 118.403 354.517C118.786 354.244 119.214 354.07 119.687 353.994V353.915C119.066 353.79 118.562 353.489 118.176 353.011C117.79 352.53 117.596 351.972 117.596 351.335C117.596 350.733 117.773 350.197 118.125 349.727C118.477 349.254 118.96 348.883 119.574 348.614C120.191 348.341 120.892 348.205 121.676 348.205C122.46 348.205 123.159 348.341 123.773 348.614C124.39 348.886 124.875 349.259 125.227 349.733C125.579 350.203 125.757 350.737 125.761 351.335C125.757 351.975 125.56 352.534 125.17 353.011C124.78 353.489 124.28 353.79 123.67 353.915V353.994C124.136 354.07 124.559 354.244 124.937 354.517C125.32 354.786 125.623 355.125 125.846 355.534C126.074 355.939 126.189 356.384 126.193 356.869C126.189 357.498 125.994 358.061 125.608 358.557C125.221 359.053 124.687 359.445 124.006 359.733C123.327 360.017 122.551 360.159 121.676 360.159ZM121.676 358.352C122.066 358.352 122.407 358.282 122.699 358.142C122.99 357.998 123.218 357.801 123.381 357.551C123.547 357.297 123.631 357.006 123.631 356.676C123.631 356.339 123.545 356.042 123.375 355.784C123.204 355.523 122.973 355.318 122.682 355.17C122.39 355.019 122.055 354.943 121.676 354.943C121.301 354.943 120.966 355.019 120.67 355.17C120.375 355.318 120.142 355.523 119.971 355.784C119.805 356.042 119.721 356.339 119.721 356.676C119.721 357.006 119.803 357.297 119.966 357.551C120.129 357.801 120.358 357.998 120.653 358.142C120.949 358.282 121.29 358.352 121.676 358.352ZM121.676 353.153C122.002 353.153 122.291 353.087 122.545 352.955C122.799 352.822 122.998 352.638 123.142 352.403C123.286 352.169 123.358 351.898 123.358 351.591C123.358 351.288 123.286 351.023 123.142 350.795C122.998 350.564 122.801 350.384 122.551 350.256C122.301 350.123 122.009 350.057 121.676 350.057C121.346 350.057 121.055 350.123 120.801 350.256C120.547 350.384 120.348 350.564 120.204 350.795C120.064 351.023 119.994 351.288 119.994 351.591C119.994 351.898 120.066 352.169 120.21 352.403C120.354 352.638 120.553 352.822 120.807 352.955C121.06 353.087 121.35 353.153 121.676 353.153ZM131.963 348.205C132.562 348.205 133.138 348.305 133.691 348.506C134.247 348.706 134.744 349.027 135.179 349.466C135.619 349.905 135.965 350.489 136.219 351.216C136.477 351.939 136.607 352.828 136.611 353.881C136.611 354.869 136.499 355.752 136.276 356.528C136.056 357.301 135.74 357.958 135.327 358.5C134.914 359.042 134.416 359.455 133.833 359.739C133.249 360.019 132.598 360.159 131.878 360.159C131.102 360.159 130.416 360.009 129.821 359.71C129.227 359.407 128.747 358.996 128.384 358.477C128.024 357.955 127.806 357.367 127.73 356.716H130.157C130.251 357.14 130.45 357.47 130.753 357.705C131.056 357.936 131.431 358.051 131.878 358.051C132.636 358.051 133.212 357.722 133.605 357.062C133.999 356.4 134.198 355.492 134.202 354.341H134.122C133.948 354.682 133.713 354.975 133.418 355.222C133.122 355.464 132.783 355.652 132.401 355.784C132.022 355.917 131.619 355.983 131.191 355.983C130.505 355.983 129.893 355.822 129.355 355.5C128.818 355.178 128.393 354.735 128.083 354.17C127.772 353.606 127.617 352.962 127.617 352.239C127.613 351.458 127.793 350.763 128.157 350.153C128.52 349.544 129.028 349.066 129.679 348.722C130.335 348.373 131.096 348.201 131.963 348.205ZM131.98 350.136C131.598 350.136 131.257 350.227 130.958 350.409C130.662 350.591 130.427 350.835 130.253 351.142C130.083 351.449 129.999 351.792 130.003 352.17C130.003 352.553 130.087 352.898 130.253 353.205C130.424 353.508 130.655 353.75 130.946 353.932C131.242 354.11 131.579 354.199 131.958 354.199C132.242 354.199 132.505 354.146 132.747 354.04C132.99 353.934 133.2 353.788 133.378 353.602C133.56 353.413 133.702 353.195 133.804 352.949C133.907 352.703 133.958 352.441 133.958 352.165C133.954 351.797 133.867 351.46 133.696 351.153C133.526 350.847 133.291 350.6 132.992 350.415C132.693 350.229 132.355 350.136 131.98 350.136Z" fill="#343A40"/>
<path d="M150.776 354.501V355.771H146.847V354.501H150.776ZM155.931 350.773V359.5H154.35V352.311H154.299L152.257 353.615V352.166L154.426 350.773H155.931ZM158.634 359.594C158.375 359.594 158.153 359.503 157.969 359.321C157.784 359.139 157.693 358.918 157.696 358.656C157.693 358.401 157.784 358.182 157.969 358C158.153 357.818 158.375 357.727 158.634 357.727C158.884 357.727 159.101 357.818 159.286 358C159.473 358.182 159.568 358.401 159.571 358.656C159.568 358.83 159.523 358.987 159.435 359.129C159.349 359.271 159.236 359.385 159.094 359.47C158.955 359.553 158.801 359.594 158.634 359.594ZM164.075 359.619C163.507 359.619 162.999 359.513 162.55 359.3C162.101 359.084 161.744 358.788 161.48 358.413C161.219 358.038 161.08 357.609 161.062 357.126H162.597C162.625 357.484 162.78 357.777 163.061 358.004C163.342 358.229 163.68 358.341 164.075 358.341C164.385 358.341 164.661 358.27 164.902 358.128C165.143 357.986 165.334 357.788 165.473 357.536C165.612 357.283 165.68 356.994 165.678 356.67C165.68 356.341 165.611 356.048 165.469 355.793C165.327 355.537 165.132 355.337 164.885 355.192C164.638 355.044 164.354 354.97 164.033 354.97C163.771 354.967 163.514 355.016 163.261 355.115C163.009 355.214 162.808 355.345 162.661 355.507L161.233 355.273L161.689 350.773H166.751V352.094H162.997L162.746 354.408H162.797C162.959 354.217 163.188 354.06 163.483 353.935C163.778 353.807 164.102 353.743 164.455 353.743C164.983 353.743 165.455 353.868 165.869 354.118C166.284 354.365 166.611 354.706 166.849 355.141C167.088 355.575 167.207 356.072 167.207 356.632C167.207 357.209 167.074 357.723 166.807 358.175C166.543 358.624 166.175 358.977 165.703 359.236C165.234 359.491 164.692 359.619 164.075 359.619ZM173.301 357.864V357.403C173.301 357.065 173.372 356.754 173.514 356.47C173.659 356.186 173.869 355.957 174.145 355.784C174.42 355.611 174.754 355.524 175.146 355.524C175.55 355.524 175.888 355.611 176.161 355.784C176.433 355.955 176.639 356.182 176.778 356.466C176.92 356.75 176.991 357.062 176.991 357.403V357.864C176.991 358.202 176.92 358.513 176.778 358.797C176.636 359.081 176.428 359.31 176.152 359.483C175.879 359.656 175.544 359.743 175.146 359.743C174.749 359.743 174.412 359.656 174.136 359.483C173.861 359.31 173.652 359.081 173.51 358.797C173.371 358.513 173.301 358.202 173.301 357.864ZM174.413 357.403V357.864C174.413 358.088 174.467 358.294 174.575 358.482C174.683 358.669 174.874 358.763 175.146 358.763C175.422 358.763 175.611 358.67 175.713 358.486C175.818 358.298 175.871 358.091 175.871 357.864V357.403C175.871 357.176 175.821 356.969 175.722 356.781C175.622 356.591 175.43 356.496 175.146 356.496C174.879 356.496 174.69 356.591 174.58 356.781C174.469 356.969 174.413 357.176 174.413 357.403ZM168.865 352.869V352.409C168.865 352.068 168.938 351.756 169.082 351.472C169.227 351.187 169.438 350.96 169.713 350.79C169.989 350.616 170.322 350.53 170.714 350.53C171.115 350.53 171.452 350.616 171.724 350.79C172 350.96 172.207 351.187 172.347 351.472C172.486 351.756 172.555 352.068 172.555 352.409V352.869C172.555 353.21 172.484 353.523 172.342 353.807C172.203 354.088 171.996 354.314 171.72 354.484C171.445 354.655 171.109 354.74 170.714 354.74C170.314 354.74 169.976 354.655 169.7 354.484C169.428 354.314 169.22 354.087 169.078 353.803C168.936 353.518 168.865 353.207 168.865 352.869ZM169.986 352.409V352.869C169.986 353.097 170.038 353.304 170.143 353.491C170.251 353.676 170.442 353.768 170.714 353.768C170.987 353.768 171.175 353.676 171.277 353.491C171.382 353.304 171.435 353.097 171.435 352.869V352.409C171.435 352.182 171.385 351.974 171.286 351.787C171.186 351.597 170.996 351.501 170.714 351.501C170.445 351.501 170.256 351.597 170.148 351.787C170.04 351.977 169.986 352.185 169.986 352.409ZM169.351 359.5L175.351 350.773H176.416L170.416 359.5H169.351Z" fill="#5F666C"/>
<path d="M196.667 354.5C196.667 350.82 193.68 347.833 190 347.833C186.32 347.833 183.333 350.82 183.333 354.5C183.333 358.18 186.32 361.167 190 361.167C193.68 361.167 196.667 358.18 196.667 354.5ZM189.78 358C189.507 358 189.28 357.773 189.28 357.5C189.28 357.227 189.507 357 189.78 357H191.793L186.647 351.853C186.547 351.753 186.5 351.627 186.5 351.5C186.5 351.373 186.547 351.247 186.647 351.147C186.84 350.953 187.16 350.953 187.353 351.147L192.5 356.293V354.28C192.5 354.007 192.727 353.78 193 353.78C193.273 353.78 193.5 354.007 193.5 354.28V357.5C193.5 357.773 193.273 358 193 358H189.78Z" fill="#9787FF"/>
<rect x="261" y="346.5" width="16" height="16" rx="5" fill="#9787FF"/>
<g clip-path="url(#clip1_104_2536)">
<path d="M265.267 355.033L267.4 357.167L272.733 351.833" stroke="white" stroke-width="1.5" stroke-linecap="round" stroke-linejoin="round"/>
</g>
<path d="M281.717 358V350.727H284.445C285.003 350.727 285.472 350.831 285.851 351.04C286.232 351.248 286.52 351.535 286.714 351.899C286.91 352.261 287.009 352.673 287.009 353.135C287.009 353.601 286.91 354.016 286.714 354.378C286.517 354.74 286.227 355.025 285.844 355.234C285.46 355.44 284.988 355.543 284.427 355.543H282.619V354.46H284.249C284.576 354.46 284.844 354.403 285.052 354.289C285.26 354.175 285.414 354.019 285.513 353.82C285.615 353.621 285.666 353.393 285.666 353.135C285.666 352.877 285.615 352.65 285.513 352.453C285.414 352.257 285.259 352.104 285.048 351.995C284.84 351.884 284.571 351.828 284.242 351.828H283.035V358H281.717ZM288.096 358V352.545H289.343V353.455H289.399C289.499 353.14 289.669 352.897 289.911 352.727C290.155 352.554 290.433 352.467 290.745 352.467C290.816 352.467 290.896 352.471 290.983 352.478C291.073 352.483 291.148 352.491 291.207 352.503V353.685C291.152 353.666 291.066 353.65 290.948 353.636C290.832 353.619 290.719 353.611 290.61 353.611C290.376 353.611 290.165 353.662 289.978 353.763C289.794 353.863 289.648 354.001 289.541 354.179C289.435 354.357 289.382 354.561 289.382 354.793V358H288.096ZM294.216 358.107C293.683 358.107 293.221 357.989 292.831 357.755C292.44 357.521 292.137 357.193 291.922 356.771C291.708 356.35 291.602 355.857 291.602 355.294C291.602 354.731 291.708 354.237 291.922 353.813C292.137 353.389 292.44 353.06 292.831 352.826C293.221 352.592 293.683 352.474 294.216 352.474C294.748 352.474 295.21 352.592 295.6 352.826C295.991 353.06 296.293 353.389 296.506 353.813C296.721 354.237 296.829 354.731 296.829 355.294C296.829 355.857 296.721 356.35 296.506 356.771C296.293 357.193 295.991 357.521 295.6 357.755C295.21 357.989 294.748 358.107 294.216 358.107ZM294.223 357.077C294.511 357.077 294.753 356.997 294.947 356.839C295.141 356.678 295.286 356.462 295.38 356.192C295.477 355.923 295.526 355.622 295.526 355.29C295.526 354.957 295.477 354.655 295.38 354.385C295.286 354.113 295.141 353.896 294.947 353.735C294.753 353.574 294.511 353.494 294.223 353.494C293.927 353.494 293.681 353.574 293.484 353.735C293.29 353.896 293.144 354.113 293.047 354.385C292.953 354.655 292.905 354.957 292.905 355.29C292.905 355.622 292.953 355.923 293.047 356.192C293.144 356.462 293.29 356.678 293.484 356.839C293.681 356.997 293.927 357.077 294.223 357.077ZM299.944 358.096C299.516 358.096 299.132 357.986 298.794 357.766C298.455 357.545 298.188 357.226 297.991 356.807C297.795 356.388 297.697 355.879 297.697 355.28C297.697 354.674 297.796 354.162 297.995 353.746C298.196 353.327 298.467 353.011 298.808 352.798C299.149 352.582 299.529 352.474 299.948 352.474C300.268 352.474 300.53 352.529 300.736 352.638C300.942 352.744 301.106 352.873 301.226 353.025C301.347 353.174 301.441 353.315 301.507 353.447H301.56V350.727H302.849V358H301.585V357.141H301.507C301.441 357.273 301.345 357.414 301.219 357.563C301.094 357.71 300.928 357.835 300.722 357.94C300.516 358.044 300.257 358.096 299.944 358.096ZM300.303 357.041C300.575 357.041 300.807 356.968 300.999 356.821C301.191 356.672 301.336 356.465 301.436 356.2C301.535 355.934 301.585 355.625 301.585 355.273C301.585 354.92 301.535 354.613 301.436 354.353C301.339 354.093 301.194 353.89 301.003 353.746C300.813 353.601 300.58 353.529 300.303 353.529C300.017 353.529 299.778 353.604 299.586 353.753C299.394 353.902 299.25 354.108 299.153 354.371C299.055 354.634 299.007 354.934 299.007 355.273C299.007 355.614 299.055 355.918 299.153 356.185C299.252 356.451 299.398 356.66 299.589 356.814C299.783 356.965 300.021 357.041 300.303 357.041ZM307.696 355.706V352.545H308.981V358H307.735V357.031H307.678C307.555 357.336 307.352 357.586 307.071 357.78C306.791 357.974 306.447 358.071 306.037 358.071C305.68 358.071 305.364 357.992 305.089 357.833C304.817 357.672 304.604 357.439 304.45 357.134C304.296 356.826 304.219 356.454 304.219 356.018V352.545H305.505V355.82C305.505 356.165 305.599 356.44 305.789 356.643C305.978 356.847 306.227 356.949 306.534 356.949C306.724 356.949 306.907 356.903 307.085 356.81C307.262 356.718 307.408 356.581 307.522 356.398C307.638 356.214 307.696 355.983 307.696 355.706ZM312.682 358.107C312.138 358.107 311.67 357.987 311.28 357.748C310.891 357.509 310.592 357.179 310.381 356.757C310.173 356.333 310.069 355.846 310.069 355.294C310.069 354.74 310.175 354.251 310.388 353.827C310.601 353.401 310.902 353.07 311.29 352.833C311.681 352.594 312.143 352.474 312.675 352.474C313.118 352.474 313.51 352.556 313.851 352.719C314.194 352.88 314.467 353.109 314.671 353.405C314.875 353.698 314.991 354.042 315.019 354.435H313.79C313.741 354.172 313.622 353.953 313.435 353.778C313.251 353.6 313.003 353.511 312.693 353.511C312.43 353.511 312.199 353.582 312.001 353.724C311.802 353.864 311.647 354.065 311.535 354.328C311.426 354.591 311.372 354.906 311.372 355.273C311.372 355.644 311.426 355.964 311.535 356.232C311.644 356.497 311.797 356.701 311.993 356.846C312.192 356.988 312.425 357.059 312.693 357.059C312.882 357.059 313.052 357.023 313.201 356.952C313.352 356.879 313.479 356.774 313.581 356.636C313.683 356.499 313.752 356.332 313.79 356.136H315.019C314.988 356.522 314.875 356.864 314.678 357.162C314.482 357.458 314.214 357.69 313.876 357.858C313.537 358.024 313.139 358.107 312.682 358.107ZM318.798 352.545V353.54H315.663V352.545H318.798ZM316.437 351.239H317.722V356.359C317.722 356.532 317.748 356.665 317.8 356.757C317.855 356.847 317.926 356.909 318.013 356.942C318.101 356.975 318.198 356.991 318.305 356.991C318.385 356.991 318.459 356.986 318.525 356.974C318.594 356.962 318.646 356.951 318.681 356.942L318.898 357.947C318.829 357.97 318.731 357.996 318.603 358.025C318.478 358.053 318.324 358.07 318.141 358.075C317.819 358.084 317.529 358.036 317.271 357.929C317.013 357.82 316.808 357.652 316.657 357.425C316.508 357.197 316.434 356.913 316.437 356.572V351.239ZM325.298 350.727V358H323.98V352.009H323.938L322.237 353.096V351.888L324.044 350.727H325.298Z" fill="#5F666C"/>
<rect x="335" y="346.5" width="16" height="16" rx="5" fill="#FDB600"/>
<g clip-path="url(#clip2_104_2536)">
<path d="M339.267 355.033L341.4 357.167L346.733 351.833" stroke="white" stroke-width="1.5" stroke-linecap="round" stroke-linejoin="round"/>
</g>
<path d="M355.717 358V350.727H358.445C359.003 350.727 359.472 350.831 359.851 351.04C360.232 351.248 360.52 351.535 360.714 351.899C360.91 352.261 361.009 352.673 361.009 353.135C361.009 353.601 360.91 354.016 360.714 354.378C360.517 354.74 360.227 355.025 359.844 355.234C359.46 355.44 358.988 355.543 358.427 355.543H356.619V354.46H358.249C358.576 354.46 358.844 354.403 359.052 354.289C359.26 354.175 359.414 354.019 359.513 353.82C359.615 353.621 359.666 353.393 359.666 353.135C359.666 352.877 359.615 352.65 359.513 352.453C359.414 352.257 359.259 352.104 359.048 351.995C358.84 351.884 358.571 351.828 358.242 351.828H357.035V358H355.717ZM362.096 358V352.545H363.343V353.455H363.399C363.499 353.14 363.669 352.897 363.911 352.727C364.155 352.554 364.433 352.467 364.745 352.467C364.816 352.467 364.896 352.471 364.983 352.478C365.073 352.483 365.148 352.491 365.207 352.503V353.685C365.152 353.666 365.066 353.65 364.948 353.636C364.832 353.619 364.719 353.611 364.61 353.611C364.376 353.611 364.165 353.662 363.978 353.763C363.794 353.863 363.648 354.001 363.541 354.179C363.435 354.357 363.382 354.561 363.382 354.793V358H362.096ZM368.216 358.107C367.683 358.107 367.221 357.989 366.831 357.755C366.44 357.521 366.137 357.193 365.922 356.771C365.708 356.35 365.602 355.857 365.602 355.294C365.602 354.731 365.708 354.237 365.922 353.813C366.137 353.389 366.44 353.06 366.831 352.826C367.221 352.592 367.683 352.474 368.216 352.474C368.748 352.474 369.21 352.592 369.6 352.826C369.991 353.06 370.293 353.389 370.506 353.813C370.721 354.237 370.829 354.731 370.829 355.294C370.829 355.857 370.721 356.35 370.506 356.771C370.293 357.193 369.991 357.521 369.6 357.755C369.21 357.989 368.748 358.107 368.216 358.107ZM368.223 357.077C368.511 357.077 368.753 356.997 368.947 356.839C369.141 356.678 369.286 356.462 369.38 356.192C369.477 355.923 369.526 355.622 369.526 355.29C369.526 354.957 369.477 354.655 369.38 354.385C369.286 354.113 369.141 353.896 368.947 353.735C368.753 353.574 368.511 353.494 368.223 353.494C367.927 353.494 367.681 353.574 367.484 353.735C367.29 353.896 367.144 354.113 367.047 354.385C366.953 354.655 366.905 354.957 366.905 355.29C366.905 355.622 366.953 355.923 367.047 356.192C367.144 356.462 367.29 356.678 367.484 356.839C367.681 356.997 367.927 357.077 368.223 357.077ZM373.944 358.096C373.516 358.096 373.132 357.986 372.794 357.766C372.455 357.545 372.188 357.226 371.991 356.807C371.795 356.388 371.697 355.879 371.697 355.28C371.697 354.674 371.796 354.162 371.995 353.746C372.196 353.327 372.467 353.011 372.808 352.798C373.149 352.582 373.529 352.474 373.948 352.474C374.268 352.474 374.53 352.529 374.736 352.638C374.942 352.744 375.106 352.873 375.226 353.025C375.347 353.174 375.441 353.315 375.507 353.447H375.56V350.727H376.849V358H375.585V357.141H375.507C375.441 357.273 375.345 357.414 375.219 357.563C375.094 357.71 374.928 357.835 374.722 357.94C374.516 358.044 374.257 358.096 373.944 358.096ZM374.303 357.041C374.575 357.041 374.807 356.968 374.999 356.821C375.191 356.672 375.336 356.465 375.436 356.2C375.535 355.934 375.585 355.625 375.585 355.273C375.585 354.92 375.535 354.613 375.436 354.353C375.339 354.093 375.194 353.89 375.003 353.746C374.813 353.601 374.58 353.529 374.303 353.529C374.017 353.529 373.778 353.604 373.586 353.753C373.394 353.902 373.25 354.108 373.153 354.371C373.055 354.634 373.007 354.934 373.007 355.273C373.007 355.614 373.055 355.918 373.153 356.185C373.252 356.451 373.398 356.66 373.589 356.814C373.783 356.965 374.021 357.041 374.303 357.041ZM381.696 355.706V352.545H382.981V358H381.735V357.031H381.678C381.555 357.336 381.352 357.586 381.071 357.78C380.791 357.974 380.447 358.071 380.037 358.071C379.68 358.071 379.364 357.992 379.089 357.833C378.817 357.672 378.604 357.439 378.45 357.134C378.296 356.826 378.219 356.454 378.219 356.018V352.545H379.505V355.82C379.505 356.165 379.599 356.44 379.789 356.643C379.978 356.847 380.227 356.949 380.534 356.949C380.724 356.949 380.907 356.903 381.085 356.81C381.262 356.718 381.408 356.581 381.522 356.398C381.638 356.214 381.696 355.983 381.696 355.706ZM386.682 358.107C386.138 358.107 385.67 357.987 385.28 357.748C384.891 357.509 384.592 357.179 384.381 356.757C384.173 356.333 384.069 355.846 384.069 355.294C384.069 354.74 384.175 354.251 384.388 353.827C384.601 353.401 384.902 353.07 385.29 352.833C385.681 352.594 386.143 352.474 386.675 352.474C387.118 352.474 387.51 352.556 387.851 352.719C388.194 352.88 388.467 353.109 388.671 353.405C388.875 353.698 388.991 354.042 389.019 354.435H387.79C387.741 354.172 387.622 353.953 387.435 353.778C387.251 353.6 387.003 353.511 386.693 353.511C386.43 353.511 386.199 353.582 386.001 353.724C385.802 353.864 385.647 354.065 385.535 354.328C385.426 354.591 385.372 354.906 385.372 355.273C385.372 355.644 385.426 355.964 385.535 356.232C385.644 356.497 385.797 356.701 385.993 356.846C386.192 356.988 386.425 357.059 386.693 357.059C386.882 357.059 387.052 357.023 387.201 356.952C387.352 356.879 387.479 356.774 387.581 356.636C387.683 356.499 387.752 356.332 387.79 356.136H389.019C388.988 356.522 388.875 356.864 388.678 357.162C388.482 357.458 388.214 357.69 387.876 357.858C387.537 358.024 387.139 358.107 386.682 358.107ZM392.798 352.545V353.54H389.663V352.545H392.798ZM390.437 351.239H391.722V356.359C391.722 356.532 391.748 356.665 391.8 356.757C391.855 356.847 391.926 356.909 392.013 356.942C392.101 356.975 392.198 356.991 392.305 356.991C392.385 356.991 392.459 356.986 392.525 356.974C392.594 356.962 392.646 356.951 392.681 356.942L392.898 357.947C392.829 357.97 392.731 357.996 392.603 358.025C392.478 358.053 392.324 358.07 392.141 358.075C391.819 358.084 391.529 358.036 391.271 357.929C391.013 357.82 390.808 357.652 390.657 357.425C390.508 357.197 390.434 356.913 390.437 356.572V351.239ZM396.34 358V357.048L398.865 354.573C399.106 354.329 399.307 354.113 399.468 353.923C399.629 353.734 399.75 353.55 399.83 353.373C399.911 353.195 399.951 353.006 399.951 352.805C399.951 352.575 399.899 352.379 399.795 352.215C399.691 352.049 399.548 351.922 399.365 351.832C399.183 351.742 398.976 351.697 398.744 351.697C398.505 351.697 398.295 351.746 398.115 351.846C397.935 351.943 397.796 352.081 397.696 352.261C397.599 352.441 397.551 352.656 397.551 352.904H396.297C396.297 352.442 396.402 352.041 396.613 351.7C396.824 351.359 397.114 351.095 397.483 350.908C397.855 350.721 398.281 350.628 398.762 350.628C399.249 350.628 399.678 350.719 400.047 350.901C400.416 351.084 400.703 351.333 400.906 351.651C401.112 351.968 401.215 352.33 401.215 352.737C401.215 353.009 401.163 353.277 401.059 353.54C400.955 353.803 400.771 354.094 400.509 354.413C400.248 354.733 399.883 355.12 399.411 355.575L398.158 356.849V356.899H401.325V358H396.34Z" fill="#5F666C"/>
</g>
<defs>
<filter id="filter0_d_104_2536" x="0" y="0" width="450" height="412" filterUnits="userSpaceOnUse" color-interpolation-filters="sRGB">
<feFlood flood-opacity="0" result="BackgroundImageFix"/>
<feColorMatrix in="SourceAlpha" type="matrix" values="0 0 0 0 0 0 0 0 0 0 0 0 0 0 0 0 0 0 127 0" result="hardAlpha"/>
<feOffset/>
<feGaussianBlur stdDeviation="8"/>
<feComposite in2="hardAlpha" operator="out"/>
<feColorMatrix type="matrix" values="0 0 0 0 0 0 0 0 0 0 0 0 0 0 0 0 0 0 0.06 0"/>
<feBlend mode="normal" in2="BackgroundImageFix" result="effect1_dropShadow_104_2536"/>
<feBlend mode="normal" in="SourceGraphic" in2="effect1_dropShadow_104_2536" result="shape"/>
</filter>
<filter id="filter1_d_104_2536" x="270" y="13" width="148" height="66" filterUnits="userSpaceOnUse" color-interpolation-filters="sRGB">
<feFlood flood-opacity="0" result="BackgroundImageFix"/>
<feColorMatrix in="SourceAlpha" type="matrix" values="0 0 0 0 0 0 0 0 0 0 0 0 0 0 0 0 0 0 127 0" result="hardAlpha"/>
<feOffset/>
<feGaussianBlur stdDeviation="8"/>
<feComposite in2="hardAlpha" operator="out"/>
<feColorMatrix type="matrix" values="0 0 0 0 0 0 0 0 0 0 0 0 0 0 0 0 0 0 0.08 0"/>
<feBlend mode="normal" in2="BackgroundImageFix" result="effect1_dropShadow_104_2536"/>
<feBlend mode="normal" in="SourceGraphic" in2="effect1_dropShadow_104_2536" result="shape"/>
</filter>
<clipPath id="clip0_104_2536">
<rect width="16" height="16" fill="white" transform="translate(370 37)"/>
</clipPath>
<clipPath id="clip1_104_2536">
<rect width="12.8" height="12.8" fill="white" transform="translate(262.6 348.1)"/>
</clipPath>
<clipPath id="clip2_104_2536">
<rect width="12.8" height="12.8" fill="white" transform="translate(336.6 348.1)"/>
</clipPath>
</defs>
</svg>
